<svg height="511pt" viewBox="1 -96 511.99999 511" width="511pt" xmlns="http://www.w3.org/2000/svg"><path d="m494.527344 10.847656h-98.257813c-.8125 0-1.59375.132813-2.324219.375-17.367187-7-36.0625-10.722656-55.066406-10.722656-19.410156 0-37.953125 3.777344-54.945312 10.621094-.628906-.171875-1.289063-.273438-1.976563-.273438h-161.5c-3.9375-5.054687-10.0625-8.324218-16.953125-8.324218h-32.167968c-6.886719 0-13.015626 3.269531-16.953126 8.324218h-36.910156c-9.632812 0-17.472656 7.839844-17.472656 17.472656v198.234376c0 4.136718 3.351562 7.488281 7.488281 7.488281 4.132813 0 7.488281-3.351563 7.488281-7.488281v-151.179688c6.191407 4.722656 13.917969 7.535156 22.289063 7.535156h105.953125v222.066406h-125.746094c-1.378906 0-2.496094-1.117187-2.496094-2.496093v-41.804688c0-4.136719-3.355468-7.488281-7.488281-7.488281-4.136719 0-7.488281 3.351562-7.488281 7.488281v41.804688c0 9.632812 7.839844 17.472656 17.472656 17.472656h159.570313c4.132812 0 7.484375-3.351563 7.484375-7.488281 0-4.136719-3.351563-7.488282-7.484375-7.488282h-18.851563v-229.554687c0-19.085937-14.582031-34.824219-33.1875-36.664063v-12.933593h131.3125c-39.171875 26.550781-64.964844 71.421875-64.964844 122.207031 0 31.53125 9.949219 60.777344 26.863282 84.78125l-5.738282 5.742188c-9.515624 9.511718-9.515624 24.992187 0 34.507812 4.609376 4.609375 10.734376 7.144531 17.253907 7.144531 6.515625 0 12.644531-2.535156 17.253906-7.144531l5.515625-5.515625c24.296875 17.613281 54.144531 28.011719 86.382812 28.011719 81.347657 0 147.527344-66.179688 147.527344-147.527344 0-24.972656-6.363281-49.664062-18.40625-71.398438-2.003906-3.617187-6.5625-4.925781-10.179687-2.921874-3.617188 2.003906-4.925781 6.5625-2.921875 10.179687 10.816406 19.519531 16.535156 41.699219 16.535156 64.136719 0 73.09375-59.464844 132.554687-132.554688 132.554687-73.09375 0-132.554687-59.464843-132.554687-132.554687s59.460937-132.550782 132.554687-132.550782c37.054688 0 71.421876 14.910157 96.773438 41.980469 2.824219 3.019531 7.5625 3.175781 10.582031.347657 3.019531-2.824219 3.175781-7.5625.347657-10.582032-7.59375-8.109375-16.046876-15.265625-25.144532-21.398437h73.089844c1.375 0 2.496094 1.117187 2.496094 2.496093v274.160157c0 1.378906-1.121094 2.496093-2.496094 2.496093h-283.367188c-4.136718 0-7.488281 3.351563-7.488281 7.488282 0 4.136718 3.351563 7.488281 7.488281 7.488281h283.363282c9.632812 0 17.472656-7.839844 17.472656-17.472656v-274.160157c0-9.636718-7.839844-17.472656-17.472656-17.472656zm-429.714844 30.019532h45.214844v4.398437h-45.214844zm6.523438-23.367188h32.167968c3.597656 0 6.523438 2.925781 6.523438 6.519531v1.871094h-45.214844v-1.871094c0-3.59375 2.929688-6.519531 6.523438-6.519531zm-56.359376 10.820312c0-1.378906 1.117188-2.496093 2.496094-2.496093h32.367188v12.75h-34.863282zm126.921876 39.613282h-104.632813c-9.429687 0-17.488281-6-20.550781-14.382813h33.167968c.398438 3.761719 3.578126 6.691407 7.445313 6.691407h60.1875c3.765625 0 6.871094-2.78125 7.398437-6.398438 7.855469 1.292969 14.3125 6.785156 16.984376 14.089844zm94.496093 194.539062c-1.78125 1.78125-4.148437 2.761719-6.664062 2.761719-2.519531 0-4.886719-.980469-6.667969-2.761719-3.675781-3.675781-3.675781-9.65625 0-13.332031l4.453125-4.453125c4.125 4.75 8.554687 9.226562 13.25 13.414062zm0 0"/><path d="m338.878906 34.894531c-62.382812 0-113.132812 50.75-113.132812 113.132813 0 62.382812 50.75 113.136718 113.132812 113.136718 62.382813 0 113.132813-50.753906 113.132813-113.136718 0-62.382813-50.75-113.132813-113.132813-113.132813zm0 211.292969c-54.125 0-98.160156-44.035156-98.160156-98.160156s44.035156-98.15625 98.160156-98.15625 98.160156 44.03125 98.160156 98.15625-44.035156 98.160156-98.160156 98.160156zm0 0"/><path d="m338.878906 76.570312c12.476563 0 24.753906 3.261719 35.503906 9.429688 1.175782.675781 2.457032.992188 3.722657.992188 2.59375 0 5.117187-1.347657 6.5-3.761719 2.058593-3.585938.820312-8.164063-2.769531-10.21875-13.015626-7.46875-27.871094-11.417969-42.957032-11.417969-4.132812 0-7.488281 3.351562-7.488281 7.488281s3.355469 7.488281 7.488281 7.488281zm0 0"/><path d="m280.941406 189.867188c-2.425781-3.351563-7.105468-4.101563-10.457031-1.679688-3.347656 2.421875-4.101563 7.105469-1.675781 10.453125 2.6875 3.722656 5.699218 7.253906 8.953125 10.503906 1.460937 1.464844 3.378906 2.195313 5.292969 2.195313 1.917968 0 3.832031-.730469 5.292968-2.195313 2.925782-2.921875 2.925782-7.664062 0-10.585937-2.6875-2.691406-5.179687-5.617188-7.40625-8.691406zm0 0"/><path d="m362.039062 215.652344c-3.914062 1.339844-6 5.597656-4.660156 9.507812 1.0625 3.109375 3.96875 5.066406 7.082032 5.066406.804687 0 1.621093-.132812 2.425781-.40625 26.453125-9.054687 46.972656-30.464843 54.890625-57.261718 1.175781-3.964844-1.089844-8.132813-5.058594-9.300782-3.964844-1.171874-8.128906 1.089844-9.300781 5.058594-6.546875 22.152344-23.507813 39.847656-45.378907 47.335938zm0 0"/><path d="m400.59375 148.027344c0-34.027344-27.683594-61.714844-61.714844-61.714844-34.027344 0-61.714844 27.6875-61.714844 61.714844 0 34.03125 27.6875 61.71875 61.714844 61.71875 34.03125 0 61.714844-27.6875 61.714844-61.71875zm-61.714844 46.742187c-25.769531 0-46.738281-20.96875-46.738281-46.738281 0-25.773438 20.96875-46.742188 46.738281-46.742188 25.773438 0 46.738282 20.96875 46.738282 46.742188 0 25.769531-20.964844 46.738281-46.738282 46.738281zm0 0"/><path d="m473.640625 289.222656c4.136719 0 7.488281-3.351562 7.488281-7.488281s-3.351562-7.488281-7.488281-7.488281h-29.113281c-4.136719 0-7.488282 3.351562-7.488282 7.488281s3.351563 7.488281 7.488282 7.488281zm0 0"/><path d="m213.3125 46.058594c0-4.132813-3.351562-7.484375-7.488281-7.484375h-35.96875c-4.136719 0-7.488281 3.351562-7.488281 7.484375 0 4.136718 3.351562 7.488281 7.488281 7.488281h35.96875c4.136719 0 7.488281-3.351563 7.488281-7.488281zm0 0"/><path d="m108.996094 129.734375c10.316406 0 18.714844-8.394531 18.714844-18.714844 0-10.320312-8.398438-18.714843-18.714844-18.714843h-15.484375c-10.316407 0-18.714844 8.394531-18.714844 18.714843 0 10.320313 8.398437 18.714844 18.714844 18.714844zm-19.222656-18.714844c0-2.0625 1.675781-3.738281 3.738281-3.738281h15.484375c2.058594 0 3.738281 1.675781 3.738281 3.738281s-1.679687 3.738281-3.738281 3.738281h-15.484375c-2.0625 0-3.738281-1.675781-3.738281-3.738281zm0 0"/></svg>