<svg height="512" viewBox="0 0 60 60" width="512" xmlns="http://www.w3.org/2000/svg"><g id="011---Blood" transform="translate(-1)"><path id="Shape" d="m46.787.549c-3.2807371 3.68770132-6.1602429 7.71364603-8.59 12.01-2.589-3.354-4.812-5.892-5.717-6.9-.3879142-.4025974-.9229275-.63005042-1.482-.63005042s-1.0940858.22745302-1.482.63005042c-1.268 1.417-3.375 3.851-5.716 6.896-2.437635-4.29293336-5.3180003-8.31887565-8.594-12.012-.3143149-.3318119-.7515313-.51935012-1.2085785-.51840385-.4570471.00094627-.8934832.19029329-1.2064215.52340385-2.766 3.129-11.791 13.973-11.791 22.152-.06279338 6.2795848 4.30914534 11.7332145 10.452 13.038-1.7380603 7.9917488 1.563062 16.2367196 8.3362136 20.8207484 6.7731516 4.5840289 15.6544212 4.5840289 22.4275728 0 6.7731516-4.5840288 10.0742739-12.8289996 8.3362136-20.8207484 6.1302534-1.3242609 10.4913861-6.7664937 10.448-13.038 0-8.2-9.021-19.028-11.787-22.151-.3149723-.33412503-.7538191-.52353159-1.213-.52353159s-.8980277.18940656-1.213.52353159zm-43.787 22.151c0-7.337 8.608-17.747 11-20.5 3.2644846 3.70932571 6.1031841 7.77266082 8.463 12.114-4.134 5.586-8.644 12.745-10.54 19.476-5.24515968-1.0847393-8.98612635-5.7342205-8.923-11.09zm28 35.3c-9.9832641-.0583842-18.0354596-8.1866281-18-18.17 0-12.147 15-29.481 18-32.83.95 1.06 3.4 3.865 6.193 7.536-1.3058691 2.5334051-2.0536592 5.317244-2.193 8.164-.0434993 3.58255 1.3801123 7.0270252 3.9402218 9.5334961 2.5601094 2.5064709 6.0339521 3.8568401 9.6147782 3.7375039 1.1931802 5.3409442-.0961463 10.9349287-3.5067678 15.214768-3.4106214 4.2798394-8.575708 6.7852149-14.0482322 6.814232zm17-24c-6.1549112-.089961-11.0756446-5.1448962-11-11.3 0-7.362 8.608-17.759 11-20.5 2.393 2.745 11 13.142 11 20.5.0756446 6.1551038-4.8450888 11.210039-11 11.3z"/><path id="Shape" d="m47.215 6.273c-2.47 3.133-8.215 11.004-8.215 16.427 0 .5522847.4477153 1 1 1s1-.4477153 1-1c0-3.28 2.983-9.1 7.785-15.191.221326-.28045349.2762196-.65767923.1440027-.98957994-.1322168-.33190071-.4314571-.56805278-.785-.6195-.3535428-.05144722-.7076767.08962645-.9290027.37007994z"/><path id="Shape" d="m42.021 26.5c-.1740587-.3208986-.5091545-.5214467-.8742151-.5232002-.3650607-.0017534-.7020675.1955665-.8792006.5147784-.1771332.3192118-.1662412.7095836.0284157 1.0184218.2747736.4694687.5903239.9138491.943 1.328.2322226.2718791.591851.3992165.9434165.3340454.3515656-.0651712.6416572-.3129498.7610001-.65.1193429-.3370503.0498061-.7121663-.1824166-.9840454-.2762388-.3239346-.5238349-.6712383-.74-1.038z"/><path id="Shape" d="m14.619 6.107c-.4329399-.33897658-1.0583362-.26482245-1.4.166-2.474 3.133-8.219 11.004-8.219 16.427 0 .5522847.44771525 1 1 1s1-.4477153 1-1c0-3.28 2.983-9.1 7.785-15.191.3403302-.43326763.2661012-1.06019001-.166-1.402z"/><path id="Shape" d="m8.021 26.5c-.16228597-.34066-.50251025-.560962-.87975069-.5696563s-.72725272.1956998-.90506047.5285216-.15313019.7373915.06381116 1.0461347c.27477364.4694687.59032386.9138491.943 1.328.23222263.2718791.59185098.3992165.94341653.3340454.35156554-.0651712.64165711-.3129498.76100001-.6500001.1193429-.3370502.04980611-.7121662-.18241654-.9840453-.27738537-.3221865-.52631732-.6678137-.744-1.033z"/><path id="Shape" d="m30.236 11.354c-3.574 4.201-15.236 18.682-15.236 28.646 0 .5522847.4477153 1 1 1s1-.4477153 1-1c0-9.281 11.3-23.28 14.76-27.35.2322226-.2722364.3015688-.6476825.1819165-.9849114s-.410125-.5850075-.762-.65c-.3518749-.0649925-.7116939.062675-.9439165.3349114z"/><path id="Shape" d="m17.505 43.733c-.0898413-.3505766-.3620889-.6252544-.7118532-.7182076-.3497644-.0929532-.7224575.0103256-.9744909.2700457-.2520334.2597202-.344072.6353471-.2406559.9821619.2021463.7282806.4554423 1.4413857.758 2.134.135572.3384517.4446005.5762964.80648.6207098.3618795.0444133.7192515-.1116443.9326433-.4072679.2133919-.2956235.2489805-.683956.0928767-1.0134419-.2646154-.6063156-.4861644-1.2305291-.663-1.868z"/><path id="Shape" d="m20.574 49.333c-.3697514-.4053627-.9970687-.4370992-1.4058429-.0711229-.4087742.3659764-.4463269.9929724-.0841571 1.4051229.331.369.684.728 1.049 1.067.2622329.242762.6340581.3271837.9754126.2214643s.6003785-.3855187.6795-.734c.0791216-.3484814-.0336797-.7127023-.2959126-.9554643-.3206667-.296-.6266667-.607-.918-.933z"/></g></svg>