<?xml version="1.0" encoding="iso-8859-1"?>
<!-- Generator: Adobe Illustrator 19.0.0, SVG Export Plug-In . SVG Version: 6.00 Build 0)  -->
<svg version="1.1" id="Capa_1" xmlns="http://www.w3.org/2000/svg" xmlns:xlink="http://www.w3.org/1999/xlink" x="0px" y="0px"
	 viewBox="0 0 512 512" style="enable-background:new 0 0 512 512;" xml:space="preserve">
<g>
	<g>
		<g>
			<path d="M469.333,119.467H460.8v-8.533c-0.015-14.132-11.468-25.585-25.6-25.6h-34.133c-14.132,0.015-25.585,11.468-25.6,25.6
				v8.533h-25.6V85.333c-0.031-28.264-22.936-51.169-51.2-51.2H204.8c-28.264,0.031-51.169,22.936-51.2,51.2v34.133h-17.067v-8.533
				c-0.015-14.132-11.468-25.585-25.6-25.6H76.8c-14.132,0.015-25.585,11.468-25.6,25.6v8.533h-8.533
				C19.114,119.494,0.028,138.581,0,162.133V435.2c0.028,23.553,19.114,42.639,42.667,42.667h426.667
				c23.553-0.028,42.639-19.114,42.667-42.667V162.133C511.972,138.581,492.886,119.494,469.333,119.467z M392.533,110.933
				c0.003-4.712,3.822-8.53,8.533-8.533H435.2c4.712,0.003,8.53,3.822,8.533,8.533v8.533h-51.2V110.933z M170.667,85.333
				c0.019-18.844,15.29-34.114,34.133-34.133h93.867c18.844,0.019,34.115,15.29,34.133,34.133v34.133h-17.067V85.333
				c-0.012-9.421-7.646-17.054-17.067-17.067H204.8c-9.421,0.012-17.054,7.646-17.067,17.067v34.133h-17.067V85.333z
				 M298.667,85.333v34.133H204.8V85.333H298.667z M68.267,110.933c0.003-4.712,3.822-8.53,8.533-8.533h34.133
				c4.711,0.003,8.53,3.822,8.533,8.533v8.533h-51.2V110.933z M494.933,435.2c-0.015,14.132-11.468,25.585-25.6,25.6H42.667
				c-14.132-0.015-25.585-11.468-25.6-25.6V162.133c0.015-14.132,11.468-25.585,25.6-25.6h426.667
				c14.132,0.015,25.585,11.468,25.6,25.6V435.2z"/>
			<path d="M349.867,256h-59.733v-59.733c-0.012-9.421-7.646-17.054-17.067-17.067h-51.2c-9.421,0.012-17.054,7.646-17.067,17.067
				V256h-59.733c-9.421,0.012-17.054,7.646-17.067,17.067v51.2c0.012,9.421,7.646,17.054,17.067,17.067H204.8v59.733
				c0.012,9.421,7.646,17.055,17.067,17.067h51.2c9.421-0.012,17.054-7.646,17.067-17.067v-59.733h59.733
				c9.421-0.012,17.054-7.646,17.067-17.067v-51.2C366.921,263.646,359.287,256.012,349.867,256z M349.867,324.267h-59.733
				c-9.421,0.012-17.054,7.646-17.067,17.067v59.733h-51.2v-59.733c-0.012-9.421-7.646-17.054-17.067-17.067h-59.733v-51.2H204.8
				c9.421-0.012,17.054-7.646,17.067-17.067v-59.733h51.2V256c0.012,9.421,7.646,17.054,17.067,17.067l59.733-0.017V324.267z"/>
		</g>
	</g>
</g>
<g>
</g>
<g>
</g>
<g>
</g>
<g>
</g>
<g>
</g>
<g>
</g>
<g>
</g>
<g>
</g>
<g>
</g>
<g>
</g>
<g>
</g>
<g>
</g>
<g>
</g>
<g>
</g>
<g>
</g>
</svg>
