<?xml version="1.0" standalone="no"?>
<!DOCTYPE svg PUBLIC "-//W3C//DTD SVG 20010904//EN"
 "http://www.w3.org/TR/2001/REC-SVG-20010904/DTD/svg10.dtd">
<svg version="1.0" xmlns="http://www.w3.org/2000/svg"
 width="500.000000pt" height="500.000000pt" viewBox="0 0 500.000000 500.000000"
 preserveAspectRatio="xMidYMid meet">
<metadata>
Created by potrace 1.15, written by Peter Selinger 2001-2017
</metadata>
<g transform="translate(0.000000,500.000000) scale(0.100000,-0.100000)"
fill="#000000" stroke="none">
<path d="M1346 4859 c-684 -120 -1220 -668 -1331 -1359 -20 -125 -20 -385 0
-510 98 -610 518 -1105 1105 -1301 167 -56 317 -79 509 -79 l158 0 6 128 c20
379 139 697 369 983 234 292 581 503 953 579 53 11 111 20 128 20 l30 0 -6 93
c-13 183 -66 365 -163 562 -80 164 -171 291 -299 420 -260 262 -580 423 -940
475 -118 16 -395 11 -519 -11z m526 -205 c257 -42 498 -157 708 -337 130 -110
270 -295 346 -455 41 -85 100 -258 110 -318 l6 -41 -47 -12 c-251 -63 -523
-195 -705 -342 -36 -29 -59 -45 -51 -36 21 26 21 26 -129 56 l-56 12 -44 84
c-25 47 -49 85 -55 85 -5 0 -30 -38 -55 -85 l-44 -84 -56 -12 c-104 -21 -132
-27 -137 -33 -3 -3 25 -38 62 -78 l67 -73 -6 -47 c-3 -27 -9 -71 -12 -100 -8
-60 -12 -60 107 -5 50 23 81 32 90 26 10 -6 11 -13 4 -22 -77 -108 -165 -250
-204 -331 -88 -179 -160 -427 -177 -614 l-7 -72 -47 0 c-125 0 -351 58 -509
131 -273 126 -538 386 -678 662 -49 98 -109 284 -128 402 -22 129 -22 331 0
460 19 118 79 304 128 402 133 264 385 516 647 648 260 131 576 178 872 129z"/>
<path d="M1570 3865 l-44 -84 -56 -12 c-104 -21 -132 -27 -137 -33 -3 -3 25
-38 62 -78 l67 -73 -6 -47 c-3 -27 -9 -70 -12 -98 -4 -31 -3 -50 3 -50 6 0 48
18 93 39 92 43 86 44 202 -15 68 -34 72 -33 64 26 -3 28 -9 71 -12 98 l-6 47
67 73 c37 40 65 75 62 78 -5 6 -33 12 -137 33 l-56 12 -44 84 c-25 47 -49 85
-55 85 -5 0 -30 -38 -55 -85z"/>
<path d="M1240 3265 l-44 -84 -56 -12 c-104 -21 -132 -27 -137 -33 -3 -3 25
-38 62 -78 l67 -73 -6 -47 c-3 -27 -9 -70 -12 -98 -4 -30 -3 -50 3 -50 6 0 48
17 94 39 l84 38 75 -34 c118 -55 114 -55 106 5 -3 29 -9 73 -12 100 l-6 47 67
73 c37 40 65 75 62 78 -5 6 -33 12 -137 33 l-56 12 -44 84 c-25 47 -49 85 -55
85 -5 0 -30 -38 -55 -85z"/>
<path d="M3190 3226 c-245 -43 -470 -136 -664 -273 -108 -77 -286 -257 -365
-368 -76 -109 -169 -296 -211 -425 -97 -298 -95 -676 6 -976 77 -232 201 -431
379 -609 304 -304 671 -455 1105 -455 266 0 461 45 695 159 160 79 277 163
410 296 133 133 217 250 296 410 114 234 159 429 159 695 0 271 -45 464 -165
705 -210 423 -595 720 -1068 826 -118 27 -460 35 -577 15z m568 -230 c497
-126 873 -503 1000 -1003 25 -100 27 -123 27 -313 0 -190 -2 -213 -27 -313
-127 -501 -509 -884 -1000 -1002 -651 -157 -1314 184 -1572 807 -153 371 -123
829 76 1173 124 213 285 377 493 500 234 138 424 186 715 181 159 -3 200 -7
288 -30z"/>
<path d="M2800 2415 l-44 -84 -56 -12 c-104 -21 -132 -27 -137 -33 -3 -3 25
-38 62 -78 l67 -73 -6 -47 c-3 -27 -9 -70 -12 -98 -4 -30 -3 -50 3 -50 6 0 48
17 94 39 l84 38 75 -34 c118 -55 114 -55 106 5 -3 29 -9 73 -12 100 l-6 47 67
73 c37 40 65 75 62 78 -5 6 -33 12 -137 33 l-56 12 -44 84 c-25 47 -49 85 -55
85 -5 0 -30 -38 -55 -85z"/>
<path d="M3980 2415 l-44 -84 -56 -12 c-104 -21 -132 -27 -137 -33 -3 -3 25
-38 62 -78 l67 -73 -6 -47 c-3 -27 -9 -70 -12 -98 -4 -30 -3 -50 3 -50 6 0 48
17 94 39 l84 38 75 -34 c118 -55 114 -55 106 5 -3 29 -9 73 -12 100 l-6 47 67
73 c37 40 65 75 62 78 -5 6 -33 12 -137 33 l-56 12 -44 84 c-25 47 -49 85 -55
85 -5 0 -30 -38 -55 -85z"/>
<path d="M3390 1875 l-44 -84 -56 -12 c-104 -21 -132 -27 -137 -33 -3 -3 25
-38 62 -78 l67 -73 -6 -47 c-3 -27 -9 -70 -12 -98 -4 -30 -3 -50 3 -50 6 0 48
17 94 39 l84 38 75 -34 c118 -55 114 -55 106 5 -3 29 -9 73 -12 100 l-6 47 67
73 c37 40 65 75 62 78 -5 6 -33 12 -137 33 l-56 12 -44 84 c-25 47 -49 85 -55
85 -5 0 -30 -38 -55 -85z"/>
<path d="M2800 1315 l-44 -84 -56 -12 c-104 -21 -132 -27 -137 -33 -3 -3 25
-38 62 -78 l67 -73 -6 -47 c-3 -27 -9 -70 -12 -98 -4 -30 -3 -50 3 -50 6 0 48
17 94 39 l84 38 75 -34 c118 -55 114 -55 106 5 -3 29 -9 73 -12 100 l-6 47 67
73 c37 40 65 75 62 78 -5 6 -33 12 -137 33 l-56 12 -44 84 c-25 47 -49 85 -55
85 -5 0 -30 -38 -55 -85z"/>
<path d="M3980 1315 l-44 -84 -56 -12 c-104 -21 -132 -27 -137 -33 -3 -3 25
-38 62 -78 l67 -73 -6 -47 c-3 -27 -9 -70 -12 -98 -4 -30 -3 -50 3 -50 6 0 48
17 94 39 l84 38 75 -34 c118 -55 114 -55 106 5 -3 29 -9 73 -12 100 l-6 47 67
73 c37 40 65 75 62 78 -5 6 -33 12 -137 33 l-56 12 -44 84 c-25 47 -49 85 -55
85 -5 0 -30 -38 -55 -85z"/>
</g>
</svg>
