<svg height="512" viewBox="0 0 60 60" width="512" xmlns="http://www.w3.org/2000/svg"><g id="009---Trees"><path id="Shape" d="m53.12 35h1c.6653599.0017455 1.2780342-.3617017 1.595473-.9464575.3174389-.5847558.2884567-1.2965308-.075473-1.8535425l-6.64-10.15h1.1c.6624371-.0049468 1.2698703-.3694407 1.5859225-.9516421s.2908028-1.2901514-.0659225-1.8483579l-8.09-12.31c-.3675344-.57480947-1.0027336-.92260731-1.685-.92260731s-1.3174656.34779784-1.685.92260731l-2.56 3.86-5.91-9.87c-.3775832-.57651035-1.0253778-.9180135-1.714385-.90378622-.6890071.01422729-1.3221522.38218052-1.675615.97378622l-5.9 9.8-2.54-3.86c-.3666229-.57931163-1.0044241-.93046739-1.69-.93046739s-1.3233771.35115576-1.69.93046739l-8.11 12.33c-.34697951.5588035-.36544307 1.2613468-.04829414 1.8376043.31714893.5762576.92055407.9365493 1.57829414.9423957h1.1l-6.63 10.16c-.35751406.5551169-.38437861 1.2608703-.07009904 1.841559.31427956.5806887.91983185.9441663 1.58009904.948441h1l-6.59 10.21c-.35846407.5566218-.38442144 1.2645455-.06768433 1.8459248.3167371.5813793.92562402.9434381 1.58768433.9440752h7.59l-1.24 1.91c-.40002361.6154003-.43081636 1.4004738-.08022291 2.0453154.35059346.6448415 1.02623718 1.0458331 1.76022291 1.0446846h4.16v2c0 1.1045695.8954305 2 2 2h4c1.1045695 0 2-.8954305 2-2v-2h4v5c0 1.1045695.8954305 2 2 2h4c1.1045695 0 2-.8954305 2-2v-5h4v2c0 1.1045695.8954305 2 2 2h4c1.1045695 0 2-.8954305 2-2v-2h4.16c.7339857.0011485 1.4096295-.3998431 1.7602229-1.0446846.3505935-.6448416.3198007-1.4299151-.0802229-2.0453154l-1.24-1.91h7.59c.6620603-.0006371 1.2709472-.3626959 1.5876843-.9440752s.2907798-1.289303-.0676843-1.8459248zm-51 11 7.4-11.44c.20452595-.3022727.22813399-.6919625.06159425-1.016715-.16653973-.3247525-.49677434-.5329845-.86159425-.543285h-2.49l7.47-11.4c.2027647-.3078849.2196876-.7023586.044036-1.0264776s-.5153851-.5253078-.884036-.5235224h-2.61l7.92-12.05 3.09 4.68-3.14 5.23c-.4010233.6169053-.4309288 1.4041861-.077861 2.0497363.3530679.6455501 1.0320835 1.0451038 1.767861 1.0402637h1.8l-8.44 12.91c-.4000236.6154003-.4308164 1.4004738-.0802229 2.0453154.3505934.6448415 1.0262372 1.0458331 1.7602229 1.0446846h1.66l-5.82 9zm17.88 9h-4v-2h4zm12 3h-4v-5h4zm12-3h-4v-2h4zm-34.16-4 9.35-14.46c.1972883-.3075001.211179-.6981163.0362314-1.0188535-.1749475-.3207372-.5108841-.5205385-.8762314-.5211465h-3.5l9.45-14.45c.2027647-.3078849.2196876-.7023586.044036-1.0264776s-.5153851-.5253078-.884036-.5235224h-3.63c13.26-22.21 1.45-2.45 10.17-17l10.2 17h-3.66c-.3686509-.0017854-.7083844.1994034-.884036.5235224s-.1587287.7185927.044036 1.0264776l9.45 14.45h-3.5c-.3653473.000608-.7012839.2004093-.8762314.5211465-.1749476.3207372-.1610569.7113534.0362314 1.0188535l9.36 14.46zm39.47-5-5.82-9h1.66c.7339857.0011485 1.4096295-.3998431 1.7602229-1.0446846.3505935-.6448416.3198007-1.4299151-.0802229-2.0453154l-8.44-12.91h1.8c.7087971-.0113081 1.3586501-.3969727 1.7081405-1.0137204s.3463934-1.3724172-.0081405-1.9862796l-3.15-5.3 3.1-4.7 7.91 12h-2.61c-.3686509-.0017854-.7083844.1994034-.884036.5235224s-.1587287.7185927.044036 1.0264776l7.47 11.45h-2.49c-.3653473.000608-.7012839.2004093-.8762314.5211465-.1749476.3207372-.1610569.7113534.0362314 1.0188535l7.4 11.46z"/><path id="Shape" d="m25.17 23.45-6 9c-.2380487.2955284-.2883109.7003343-.1297641 1.0451054.1585468.3447712.4985809.570095.8778815.5817287.3793005.0116337.7325045-.1924276.9118826-.5268341l6-9c.2440793-.4550261.101585-1.0210631-.3288453-1.306288s-1.0072424-.1958368-1.3311547.206288z"/><path id="Shape" d="m40 34c.3668574-.0018915.7032263-.2045104.8764086-.5279231.1731823-.3234128.1553705-.7156897-.0464086-1.0220769l-6-9c-.3239123-.4021248-.9007244-.4915129-1.3311547-.206288s-.5729246.8512619-.3288453 1.306288l6 9c.1839835.2793852.4954809.4482694.83.45z"/><path id="Shape" d="m23.54 36.16c-.4640673-.2974116-1.0812901-.1632328-1.38.3l-7 11c-.1972883.3075001-.211179.6981163-.0362314 1.0188535.1749475.3207372.5108841.5205385.8762314.5211465.3399921-.0005664.6564045-.1738399.84-.46l7-11c.2974116-.4640673.1632328-1.0812901-.3-1.38z"/><path id="Shape" d="m36.46 36.16c-.4632328.2987099-.5974116.9159327-.3 1.38l7 11c.1832838.3213046.5289644.5151878.8987018.5040582.3697373-.0111295.7031304-.2254536.8667566-.5572006.1636261-.331747.130755-.7267221-.0854584-1.0268576l-7-11c-.2987099-.4632328-.9159327-.5974116-1.38-.3z"/><path id="Shape" d="m30 23c-.5522847 0-1 .4477153-1 1v9c0 .5522847.4477153 1 1 1s1-.4477153 1-1v-9c0-.5522847-.4477153-1-1-1z"/><path id="Shape" d="m30 11c-.5522847 0-1 .4477153-1 1v8c0 .5522847.4477153 1 1 1s1-.4477153 1-1v-8c0-.5522847-.4477153-1-1-1z"/><path id="Shape" d="m30 36c-.5522847 0-1 .4477153-1 1v11c0 .5522847.4477153 1 1 1s1-.4477153 1-1v-11c0-.5522847-.4477153-1-1-1z"/></g></svg>