<svg height="512pt" viewBox="0 0 512 512" width="512pt" xmlns="http://www.w3.org/2000/svg"><path d="m511.480469 91.226562c-.121094-.40625-.269531-.800781-.449219-1.183593-.515625-.894531-1.132812-1.726563-1.839844-2.480469-.476562-.40625-.996094-.757812-1.550781-1.046875-.355469-.238281-.726563-.445313-1.109375-.625-.09375-.035156-.160156-.109375-.257812-.144531l-241.921876-84.355469c-5.421874-1.855469-11.308593-1.855469-16.726562.007813l-241.898438 84.347656c-.097656.035156-.164062.109375-.257812.144531-.386719.179687-.757812.386719-1.109375.625-.554687.289063-1.078125.640625-1.554687 1.046875-.292969.292969-.5625.609375-.808594.945312-.398438.472657-.746094.988282-1.035156 1.539063-.4375.972656-.71875 2.011719-.828126 3.074219-.015624.234375-.132812.441406-.132812.683594v34.132812c0 4.714844 3.820312 8.535156 8.535156 8.535156h8.53125v17.066406c.019532 7.242188 3.121094 14.132813 8.535156 18.945313v23.722656c.015626 10.445313 6.378907 19.835938 16.078126 23.722657-9.476563 62.882812-9.558594 126.828124-.238282 189.734374-13.617187.636719-24.339844 11.84375-24.375 25.476563v18.636719c-10.199218 3.59375-17.035156 13.214844-17.066406 24.027344v25.601562c0 4.710938 3.820312 8.53125 8.535156 8.53125h494.929688c4.714844 0 8.535156-3.820312 8.535156-8.53125v-25.601562c-.03125-10.8125-6.867188-20.433594-17.066406-24.027344v-18.636719c-.035156-13.632813-10.757813-24.839844-24.375-25.476563 9.320312-62.910156 9.238281-126.851562-.238282-189.734374 9.699219-3.886719 16.0625-13.277344 16.078126-23.722657v-23.722656c5.414062-4.8125 8.515624-11.703125 8.535156-18.945313v-17.066406h8.53125c4.714844 0 8.535156-3.820312 8.535156-8.535156v-34.132812c0-.242188-.117188-.449219-.136719-.6875-.054687-.640626-.183593-1.277344-.382812-1.890626zm-258.265625-73.699218c1.796875-.625 3.746094-.628906 5.542968-.007813l194.316407 67.753907h-394.148438zm-108.148438 161.613281v17.066406c.015625 10.445313 6.382813 19.835938 16.082032 23.722657-9.472657 62.839843-9.558594 126.742187-.257813 189.609374h-48.714844c9.300781-62.867187 9.214844-126.769531-.257812-189.609374 9.699219-3.886719 16.066406-13.277344 16.082031-23.722657v-17.066406zm119.46875 0v17.066406c.015625 10.445313 6.378906 19.835938 16.078125 23.722657-9.472656 62.839843-9.558593 126.742187-.253906 189.609374h-48.71875c9.304687-62.867187 9.21875-126.769531-.253906-189.609374 9.699219-3.886719 16.0625-13.277344 16.078125-23.722657v-17.066406zm119.464844 0v17.066406c.015625 10.445313 6.382812 19.835938 16.082031 23.722657-9.472656 62.839843-9.558593 126.742187-.257812 189.609374h-48.714844c9.300781-62.867187 9.214844-126.769531-.257813-189.609374 9.699219-3.886719 16.066407-13.277344 16.082032-23.722657v-17.066406zm69.375 230.398437h-36.351562c-9.398438-62.226562-9.398438-125.507812 0-187.734374h36.351562c9.402344 62.226562 9.402344 125.507812 0 187.734374zm-155.816406-187.734374h36.351562c9.398438 62.226562 9.398438 125.507812 0 187.734374h-36.351562c-9.402344-62.226562-9.402344-125.507812 0-187.734374zm52.308594-25.597657c-.003907 4.710938-3.824219 8.527344-8.535157 8.53125h-51.199219c-4.710937-.003906-8.527343-3.820312-8.53125-8.53125v-17.066406h68.265626zm-171.777344 25.597657h36.351562c9.402344 62.226562 9.402344 125.507812 0 187.734374h-36.351562c-9.398438-62.226562-9.398438-125.507812 0-187.734374zm52.308594-25.597657c-.003907 4.710938-3.820313 8.527344-8.53125 8.53125h-51.199219c-4.710938-.003906-8.53125-3.820312-8.535157-8.53125v-17.066406h68.265626zm-171.773438 25.597657h36.351562c9.398438 62.226562 9.398438 125.507812 0 187.734374h-36.351562c-9.402344-62.226562-9.402344-125.507812 0-187.734374zm52.308594-25.597657c-.003906 4.710938-3.824219 8.527344-8.535156 8.53125h-51.199219c-4.710938-.003906-8.527344-3.820312-8.53125-8.53125v-17.066406h68.265625zm384 298.664063h-477.867188v-17.066406c.003906-4.710938 3.824219-8.527344 8.535156-8.53125h460.796876c4.710937.003906 8.53125 3.820312 8.535156 8.53125zm-17.066406-59.730469v17.066406h-443.734376v-17.066406c.003907-4.710937 3.824219-8.53125 8.535157-8.535156h426.664062c4.710938.003906 8.53125 3.824219 8.535157 8.535156zm-8.535157-238.933594c-.003906 4.710938-3.820312 8.527344-8.53125 8.53125h-51.199219c-4.710937-.003906-8.53125-3.820312-8.535156-8.53125v-17.066406h68.265625zm8.535157-42.667969c-.003907 4.710938-3.824219 8.527344-8.535157 8.535157h-426.664062c-4.710938-.007813-8.53125-3.824219-8.535157-8.535157v-17.066406h443.734376zm17.066406-34.132812h-477.867188v-17.066406h477.867188zm0 0"/></svg>