<svg height="682pt" viewBox="-21 -21 682.66679 682" width="682pt" xmlns="http://www.w3.org/2000/svg"><path d="m607.996094 555h-575.996094c-5.890625 0-10.667969-4.773438-10.667969-10.667969v-490.664062c0-5.894531 4.777344-10.667969 10.667969-10.667969h575.996094c5.894531 0 10.671875 4.773438 10.671875 10.667969v490.664062c0 5.894531-4.777344 10.667969-10.671875 10.667969zm-565.332032-21.332031h554.667969v-469.335938h-554.667969zm0 0"/><path d="m618.667969 640.332031h-597.335938c-11.78125 0-21.332031-9.550781-21.332031-21.332031v-32.003906c0-1.648438.382812-3.285156 1.117188-4.765625l21.332031-42.664063c1.8125-3.617187 5.507812-5.902344 9.550781-5.898437h575.996094c4.0625-.023438 7.789062 2.265625 9.601562 5.898437l21.335938 42.664063c.71875 1.484375 1.085937 3.117187 1.066406 4.765625v32.003906c0 11.78125-9.550781 21.332031-21.332031 21.332031zm-597.335938-50.816406v29.484375h597.335938v-29.484375l-17.261719-34.515625h-562.8125zm0 0"/><path d="m64 597.667969h-53.332031c-5.894531 0-10.667969-4.777344-10.667969-10.671875 0-5.886719 4.773438-10.664063 10.667969-10.664063h53.332031c5.890625 0 10.667969 4.777344 10.667969 10.664063 0 5.894531-4.777344 10.671875-10.667969 10.671875zm0 0"/><path d="m629.332031 597.667969h-522.667969c-5.886718 0-10.664062-4.777344-10.664062-10.671875 0-5.886719 4.777344-10.664063 10.664062-10.664063h522.667969c5.890625 0 10.667969 4.777344 10.667969 10.664063 0 5.894531-4.777344 10.671875-10.667969 10.671875zm0 0"/><path d="m618.667969 64.332031h-596.453125c-11.78125 0-21.332032-9.550781-21.332032-21.332031v-21.332031c0-11.785157 9.550782-21.335938 21.332032-21.335938h596.453125c11.78125 0 21.332031 9.550781 21.332031 21.335938v21.332031c0 11.78125-9.550781 21.332031-21.332031 21.332031zm-596.453125-42.664062v21.332031h596.453125v-21.332031zm0 0"/><path d="m74.667969 555h-42.667969c-5.890625 0-10.667969-4.773438-10.667969-10.667969v-490.664062c0-5.894531 4.777344-10.667969 10.667969-10.667969h42.667969c5.886719 0 10.664062 4.773438 10.664062 10.667969v490.664062c0 5.894531-4.777343 10.667969-10.664062 10.667969zm-32.003907-21.332031h21.335938v-469.335938h-21.335938zm0 0"/><path d="m607.996094 555h-42.664063c-5.890625 0-10.664062-4.773438-10.664062-10.667969v-490.664062c0-5.894531 4.773437-10.667969 10.664062-10.667969h42.664063c5.894531 0 10.671875 4.773438 10.671875 10.667969v490.664062c0 5.894531-4.777344 10.667969-10.671875 10.667969zm-31.996094-21.332031h21.332031v-469.335938h-21.332031zm0 0"/><path d="m565.332031 128.332031h-490.664062c-5.894531 0-10.667969-4.777343-10.667969-10.664062 0-5.894531 4.773438-10.667969 10.667969-10.667969h490.664062c5.894531 0 10.667969 4.773438 10.667969 10.667969 0 5.886719-4.773438 10.664062-10.667969 10.664062zm0 0"/><path d="m565.332031 491h-490.664062c-5.894531 0-10.667969-4.773438-10.667969-10.667969 0-5.886719 4.773438-10.664062 10.667969-10.664062h490.664062c5.894531 0 10.667969 4.777343 10.667969 10.664062 0 5.894531-4.773438 10.667969-10.667969 10.667969zm0 0"/><path d="m138.667969 555c-5.894531 0-10.671875-4.773438-10.671875-10.667969v-490.664062c0-5.894531 4.777344-10.667969 10.671875-10.667969 5.886719 0 10.664062 4.773438 10.664062 10.667969v490.664062c0 5.894531-4.777343 10.667969-10.664062 10.667969zm0 0"/><path d="m501.332031 555c-5.886719 0-10.664062-4.773438-10.664062-10.667969v-490.664062c0-5.894531 4.777343-10.667969 10.664062-10.667969 5.894531 0 10.667969 4.773438 10.667969 10.667969v490.664062c0 5.894531-4.773438 10.667969-10.667969 10.667969zm0 0"/><path d="m181.332031 192.335938c-4.3125-.003907-8.203125-2.601563-9.851562-6.585938-1.652344-3.984375-.738281-8.574219 2.3125-11.621094l10.664062-10.671875c4.183594-4.042969 10.839844-3.984375 14.953125.132813 4.113282 4.113281 4.171875 10.765625.128906 14.953125l-10.664062 10.667969c-2 1.996093-4.714844 3.125-7.542969 3.125zm0 0"/><path d="m181.332031 256.335938c-4.3125 0-8.203125-2.605469-9.851562-6.589844-1.652344-3.984375-.738281-8.566406 2.3125-11.621094l85.332031-85.332031c4.183594-4.042969 10.839844-3.984375 14.953125.128906 4.113281 4.117187 4.171875 10.765625.128906 14.957031l-85.332031 85.332032c-2 2-4.714844 3.125-7.542969 3.125zm0 0"/></svg>