<?xml version="1.0" encoding="iso-8859-1"?>
<!-- Generator: Adobe Illustrator 19.0.0, SVG Export Plug-In . SVG Version: 6.00 Build 0)  -->
<svg version="1.1" id="Capa_1" xmlns="http://www.w3.org/2000/svg" xmlns:xlink="http://www.w3.org/1999/xlink" x="0px" y="0px"
	 viewBox="0 0 512.096 512.096" style="enable-background:new 0 0 512.096 512.096;" xml:space="preserve">
<g transform="translate(-1)">
	<g>
		<g>
			<path d="M503.138,263.86c-6.068-3.38-13.508-3.128-19.333,0.654l-55.333,35.146v-27.508
				c0.031-16.542-13.334-29.986-29.875-30.054h-43.133c27.985-31.058,37.134-74.753,23.961-114.43
				c-13.174-39.677-46.64-69.222-87.644-77.374c-53.6-10.399-107.304,17.475-129.65,67.292
				c-30.809-18.911-69.143-20.775-101.64-4.942s-54.656,47.17-58.751,83.087c-3.571,30.388,5.925,60.864,26.125,83.846
				c17.226,19.327,41.283,31.211,67.1,33.146V433.91c-0.031,16.542,13.334,29.987,29.875,30.054h273.758
				c16.541-0.068,29.906-13.513,29.875-30.054v-27.879l55.317,35.137c5.829,3.789,13.275,4.044,19.35,0.663
				c6.155-3.392,9.972-9.869,9.958-16.896V280.756C513.109,273.729,509.292,267.252,503.138,263.86z M496.03,424.935
				c0.032,0.8-0.395,1.549-1.1,1.929c-0.618,0.366-1.395,0.328-1.975-0.096l-68.442-43.471c-2.628-1.669-5.956-1.774-8.685-0.274
				s-4.424,4.365-4.424,7.478v43.408c0.043,7.121-5.688,12.932-12.809,12.988H124.838c-7.121-0.056-12.852-5.867-12.809-12.988
				V304.527c0.001-2.263-0.898-4.434-2.499-6.035c-1.6-1.6-3.771-2.499-6.035-2.499c-24,0.217-46.93-9.918-62.925-27.813
				c-16.968-19.369-24.916-45.031-21.867-70.6c4.694-41.78,38.163-74.474,80.042-78.187c2.667-0.233,5.333-0.35,7.983-0.35
				c19.631-0.044,38.717,6.455,54.242,18.471c2.192,1.697,5.072,2.224,7.723,1.413s4.743-2.859,5.61-5.492
				c13.262-40.799,51.202-68.487,94.102-68.675c42.9-0.187,81.08,27.168,94.698,67.85c13.618,40.682-0.399,85.51-34.766,111.187
				c-2.945,2.199-4.151,6.038-2.991,9.527c1.16,3.488,4.423,5.842,8.099,5.84h65.15c7.121,0.056,12.852,5.867,12.809,12.988v43.038
				c0,3.113,1.696,5.979,4.424,7.478s6.056,1.394,8.685-0.274l68.458-43.479c0.577-0.417,1.347-0.452,1.958-0.087
				c0.705,0.38,1.132,1.129,1.1,1.929V424.935z"/>
			<path d="M265.63,199.431c23.564,0,42.667-19.103,42.667-42.667s-19.102-42.667-42.667-42.667
				c-23.564,0-42.667,19.102-42.667,42.667C222.991,180.317,242.077,199.403,265.63,199.431z M265.63,131.164
				c14.138,0,25.6,11.461,25.6,25.6s-11.462,25.6-25.6,25.6s-25.6-11.462-25.6-25.6C240.045,142.632,251.498,131.18,265.63,131.164z
				"/>
			<path d="M146.163,207.964c0-23.564-19.102-42.667-42.667-42.667S60.83,184.4,60.83,207.964s19.103,42.667,42.667,42.667
				C127.049,250.603,146.135,231.517,146.163,207.964z M103.496,233.564c-14.138,0-25.6-11.462-25.6-25.6s11.462-25.6,25.6-25.6
				s25.6,11.461,25.6,25.6C129.081,222.096,117.628,233.549,103.496,233.564z"/>
			<path d="M368.03,276.231H154.696c-14.132,0.015-25.585,11.468-25.6,25.6v102.4c0.015,14.132,11.468,25.585,25.6,25.6H368.03
				c14.132-0.015,25.585-11.468,25.6-25.6v-102.4C393.614,287.699,382.162,276.246,368.03,276.231z M376.563,404.231
				c-0.005,4.711-3.822,8.529-8.533,8.533H154.696c-4.711-0.005-8.529-3.823-8.533-8.533v-102.4
				c0.005-4.711,3.823-8.529,8.533-8.533H368.03c4.711,0.005,8.529,3.822,8.533,8.533V404.231z"/>
			<path d="M316.83,310.364H205.896c-23.564,0-42.667,19.102-42.667,42.667c0,23.564,19.102,42.667,42.667,42.667
				s42.667-19.102,42.667-42.667c-0.032-9.262-3.107-18.257-8.752-25.6h43.103c-5.644,7.343-8.719,16.338-8.752,25.6
				c0,23.564,19.102,42.667,42.667,42.667s42.667-19.102,42.667-42.667C359.496,329.467,340.394,310.364,316.83,310.364z
				 M205.896,378.631c-14.138,0-25.6-11.462-25.6-25.6c0-14.138,11.461-25.6,25.6-25.6c14.132,0.015,25.585,11.468,25.6,25.6
				C231.496,367.17,220.035,378.631,205.896,378.631z M316.83,378.631c-14.138,0-25.6-11.462-25.6-25.6
				c0-14.138,11.461-25.6,25.6-25.6s25.6,11.462,25.6,25.6C342.414,367.163,330.962,378.616,316.83,378.631z"/>
		</g>
	</g>
</g>
<g>
</g>
<g>
</g>
<g>
</g>
<g>
</g>
<g>
</g>
<g>
</g>
<g>
</g>
<g>
</g>
<g>
</g>
<g>
</g>
<g>
</g>
<g>
</g>
<g>
</g>
<g>
</g>
<g>
</g>
</svg>
