<svg height="512" viewBox="0 0 60 60" width="512" xmlns="http://www.w3.org/2000/svg"><g id="089---Writing-Music"><path id="Shape" d="m58.256 11.04c.3923789.3789722 1.0160848.3735524 1.4018186-.0121814s.3911536-1.0094397.0121814-1.4018186l-.761-.761c.2318723-.48986483.2445968-1.05519856.035-1.555l-.831-1.939c-1.2-2.807-3.434-3.463-5.423-4.315-.4997286-.21136246-1.0659809-.19898934-1.556.034l-.76-.76c-.2510745-.25995658-.6228779-.3642126-.9725073-.27269716-.3496295.09151544-.6226744.3645604-.7141899.71418984-.0915154.34962943.0127406.72143285.2726972.97250732l.733.733-1.138 1.346-.837-.837c-.3904653-.39156989-1.0244301-.39246532-1.416-.002s-.3924653 1.02443011-.002 1.416l.954.954-1.134 1.346-.393-.394c-.2525868-.25276541-.6208353-.35157685-.96603-.25921299-.3451946.09236386-.6148921.36187074-.7075.70700001s.0059432.71344758.25853.96621298l.512.511-.674.8c-.398804.47418197-.5474061 1.1101988-.4 1.712l-12.232 11.532c-5.918-3.205-11.618-1.158-14.208 2.914-.857 1.356-1.1 2.983-1.9 4.035-1.735 2.288-4.7 2.65-7.532 3.3-3.54204932.8586536-6.34675512 3.5590284-7.339 7.066-1.71 5.5 1.071 11.626 4.609 15.285 3.865 3.736 9.98 6.228 15.262 4.586 3.5050225-.9915025 6.204622-3.7935072 7.065-7.333.651-2.838 1.019-5.8 3.3-7.535.6051129-.4125024 1.2675095-.7339298 1.966-.954.7205693-.2428993 1.4134239-.5613376 2.067-.95 4.119-2.623 6.1-8.33 2.913-14.207l11.543-12.238c.5993957.1521614 1.2353828.0058248 1.708-.393l.8-.675.511.512c.3907415.3904653 1.0240347.3902414 1.4145-.0005.3904653-.3907415.3902414-1.0240347-.0005-1.4145l-.397-.393 1.345-1.138.954.954c.2510745.2599566.6228779.3642126.9725073.2726972.3496295-.0915155.6226744-.3645604.7141899-.7141899.0915154-.3496294-.0127406-.7214328-.2726972-.9725073l-.837-.836 1.346-1.139zm-1.133-3.015-7.4 6.263-3.891-3.816c-.0322876-.0691305-.072562-.1342409-.12-.194.14-.168 3.456-4.128 3.606-4.278.021-.02-.272.3 2.334-2.807.1-.077.095-.008.255-.3 3.567 1.532 3.459 1.262 5.216 5.132zm-26.609 25.191c-.5257641-1.7981404-1.9318596-3.2042359-3.73-3.73l18.175-17.135 2.69 2.69zm-18.614 13.634 8.609-8.608c.3264716.494976.750024.9185284 1.245 1.245l-8.604 8.613zm10.582-9.336c-1.1871975-1.1833143-1.4305902-3.01692-.5932118-4.4689765s2.5463176-2.1597826 4.1651319-1.7249136c1.6188143.4348689 2.7430596 1.9036855 2.7400799 3.5798901-.0042551 1.4924573-.9047604 2.8362328-2.2835286 3.4075866-1.3787682.5713539-2.965811.2584045-4.0244714-.7935866zm11.258 3.486c-1.179.745-2.789.943-4.173 2-2.821 2.142-3.322 5.492-4.042 8.683-.7081328 2.8407623-2.8886229 5.0815987-5.709 5.867-4.72 1.47-10.067-1.009-13.254-4.09-3.104-3.21-5.58-8.56-4.113-13.276.78557729-2.8206361 3.02685347-5.0011824 5.868-5.709 3.253-.736 6.539-1.218 8.68-4.039 1.093-1.433 1.23-2.955 2-4.174 1.941-3.05 6.2-4.807 10.986-2.541l-5.925 5.587c-1.550851.2831358-2.9130673 1.2009032-3.7579686 2.5318601-.8449014 1.330957-1.095754 2.9542263-.6920314 4.4781399l-9.118 9.118-1.283-1.283c-.25107447-.2599566-.62287789-.3642126-.97250732-.2726972-.34962944.0915155-.6226744.3645604-.71418984.7141899-.09151544.3496294.01274058.7214328.27269716.9725073l6.64 6.64c.2510745.2599566.6228779.3642126.9725073.2726972.3496295-.0915155.6226744-.3645604.7141899-.7141899.0915154-.3496294-.0127406-.7214328-.2726972-.9725073l-1.283-1.283 9.118-9.119c1.524099.4072166 3.149072.1578564 4.4809387-.6876224s2.2490085-2.209872 2.5290613-3.7623776l5.587-5.925c2.271 4.795.477 9.065-2.539 10.984z"/><path id="Shape" d="m8.848 37.093c-.0967704-.2478952-.28835692-.4469951-.53234813-.5532251-.24399122-.1062301-.52026109-.1108276-.76765187-.0127749-.161.064-3.948 1.615-3.759 7.214.01178976.3572656.21328288.6811028.52857884.8495254s.6964938.155843 1-.033c.30350619-.188843.48321092-.5252598.47142116-.8825254-.139-4.117 2.371-5.236 2.5-5.289.5097921-.2043595.75935898-.7816224.559-1.293z"/><path id="Shape" d="m55.621 30.953c-2.131 0-3.122 1.29-4.24 2.407l-.5-.505c-1.0735804-1.0251473-2.7634196-1.0251473-3.837 0l-5.451 5.452c-.3438487.395671-.3237983.9897121.0459475 1.3612973.3697457.3715853.9636799.3945836 1.3610525.0527027l5.451-5.451c.2822086-.2698439.7267914-.2698439 1.009 0l.5.5c-16.09 16.09-15.135 15.084-15.256 15.362-.044.153.387-.9-3.63 8.47-.1347232.3105009-.1032383.668077.0836712.9502578.1869095.2821809.5038726.4506634.8423288.4477422.293 0-.405.261 8.861-3.71.355-.118.475-.367 17.889-17.781 1.258859-1.2681703 1.6332429-3.1681654.9495778-4.8190997s-2.2916994-2.7299942-4.0785778-2.7369003zm-21.721 26.147 2.067-4.824 2.757 2.757zm6.575-3.144-3.431-3.431 12.52-12.52 3.436 3.431zm16.861-16.856-2.927 2.926-3.43-3.43 2.926-2.927c.9593564-.9182364 2.4716436-.9182364 3.431 0 .4554901.4547074.7114476 1.071893.7114476 1.7155s-.2559575 1.2607926-.7114476 1.7155z"/><path id="Shape" d="m9.758 26.728c.7809997.7807639 2.0470003.7807639 2.828 0l14.142-14.142c.7807639-.7809997.7807639-2.0470003 0-2.828l-9.171-9.172c-.375096-.37524801-.8839266-.58607293-1.4145-.58607293s-1.039404.21082492-1.4145.58607293l-14.142 14.142c-.37524801.375096-.58607293.8839266-.58607293 1.4145s.21082492 1.039404.58607293 1.4145zm6.385-24.728 9.17 9.172-14.14 14.142-9.173-9.172z"/><path id="Shape" d="m13.293 18.95c.014-.013.021-.032.035-.046.313-.358-.838 1.018 6.4-7.665l.639.641c.2525868.2529441.6209306.3519206.96628.259646.3453493-.0922745.6152374-.3617814.708-.707s-.0056932-.713702-.25828-.966646l-.641-.642c-.397476-.39698001-.943582-.60849386-1.5047601-.58281283-.561178.02568103-1.085683.28618894-1.4452399.71781283l-4.582 5.5c-1.265-2.679-4.435-3.694-5.971-2.162-1.189 1.19-.877 3.364.708 4.949 1.399 1.4 3.627 2.018 4.946.704zm-4.243-4.243c.535-.535 2.608.5 2.934 2.11.265 1.335-1.284.955-2.227.011-.863-.863-.995-1.828-.707-2.121z"/></g></svg>