<?xml version="1.0" encoding="iso-8859-1"?>
<!-- Generator: Adobe Illustrator 19.0.0, SVG Export Plug-In . SVG Version: 6.00 Build 0)  -->
<svg version="1.1" id="Capa_1" xmlns="http://www.w3.org/2000/svg" xmlns:xlink="http://www.w3.org/1999/xlink" x="0px" y="0px"
	 viewBox="0 0 512 512" style="enable-background:new 0 0 512 512;" xml:space="preserve">
<g>
	<g>
		<g>
			<path d="M401.067,155.975V17.067C401.054,7.646,393.421,0.012,384,0H128c-9.421,0.012-17.054,7.646-17.067,17.067v138.908
				c-5.261,3.025-8.513,8.623-8.533,14.692v324.267c0.012,9.421,7.646,17.054,17.067,17.067h273.067
				c9.421-0.012,17.055-7.646,17.067-17.067V170.667C409.579,164.598,406.328,159,401.067,155.975z M128,17.067h256V153.6h-34.133
				V92.294c10.199-3.592,17.033-13.214,17.067-24.028v-8.533c0.044-10.117-5.899-19.303-15.146-23.408s-20.046-2.353-27.521,4.466
				c-9.646-8.878-24.487-8.878-34.133,0c-9.646-8.878-24.487-8.878-34.133,0c-9.646-8.878-24.487-8.878-34.133,0
				c-9.646-8.878-24.487-8.878-34.133,0c-7.474-6.819-18.274-8.571-27.521-4.466c-9.247,4.105-15.19,13.291-15.146,23.408v8.533
				c0.033,10.813,6.868,20.435,17.067,24.027V153.6H128V17.067z M341.333,76.8c-4.711-0.003-8.53-3.822-8.533-8.533v-8.533
				c0-4.713,3.821-8.533,8.533-8.533c4.713,0,8.533,3.82,8.533,8.533v8.533C349.864,72.978,346.045,76.797,341.333,76.8z
				 M315.733,92.294c3.151-1.119,6.05-2.847,8.533-5.086c2.483,2.239,5.383,3.966,8.533,5.085V153.6h-17.067V92.294z M307.2,76.8
				c-4.712-0.003-8.53-3.822-8.533-8.533v-8.533c0-4.713,3.82-8.533,8.533-8.533s8.533,3.82,8.533,8.533v8.533
				C315.73,72.978,311.911,76.797,307.2,76.8z M281.6,92.294c3.151-1.119,6.05-2.847,8.533-5.086
				c2.483,2.239,5.383,3.966,8.533,5.085V153.6H281.6V92.294z M273.067,76.8c-4.711-0.003-8.53-3.822-8.533-8.533v-8.533
				c0-4.713,3.82-8.533,8.533-8.533s8.533,3.82,8.533,8.533v8.533C281.597,72.978,277.778,76.797,273.067,76.8z M247.467,92.294
				c3.151-1.119,6.05-2.847,8.533-5.086c2.483,2.239,5.383,3.966,8.533,5.085V153.6h-17.067V92.294z M238.933,76.8
				c-4.712-0.003-8.53-3.822-8.533-8.533v-8.533c0-4.713,3.82-8.533,8.533-8.533s8.533,3.82,8.533,8.533v8.533
				C247.464,72.978,243.645,76.797,238.933,76.8z M213.333,92.294c3.151-1.119,6.05-2.847,8.533-5.086
				c2.483,2.239,5.383,3.966,8.533,5.085V153.6h-17.067V92.294z M204.8,76.8c-4.711-0.003-8.53-3.822-8.533-8.533v-8.533
				c0-4.713,3.82-8.533,8.533-8.533s8.533,3.82,8.533,8.533v8.533C213.33,72.978,209.512,76.797,204.8,76.8z M179.2,92.294
				c3.151-1.119,6.05-2.847,8.533-5.086c2.483,2.239,5.383,3.966,8.533,5.085V153.6H179.2V92.294z M170.667,76.8
				c-4.712-0.003-8.53-3.822-8.533-8.533v-8.533c0-4.713,3.821-8.533,8.533-8.533s8.533,3.82,8.533,8.533v8.533
				C179.197,72.978,175.378,76.797,170.667,76.8z M119.467,494.933V170.667h273.067l0.017,324.267H119.467z"/>
			<path d="M341.333,187.733H170.667c-18.844,0.019-34.115,15.29-34.133,34.133v221.867c0.019,18.844,15.29,34.115,34.133,34.133
				h170.667c18.844-0.019,34.115-15.29,34.133-34.133V221.867C375.448,203.023,360.177,187.752,341.333,187.733z M358.4,443.733
				c-0.012,9.421-7.646,17.055-17.067,17.067H170.667c-9.421-0.012-17.054-7.646-17.067-17.067V221.867
				c0.012-9.421,7.646-17.054,17.067-17.067h170.667c9.421,0.012,17.054,7.646,17.067,17.067V443.733z"/>
			<path d="M294.133,314.992l-0.15-0.125c-9.936-8.376-15.744-20.655-15.917-33.65l0.042-1.717c0.167-4.143,0.951-8.238,2.325-12.15
				c1.135-3.261,0.195-6.884-2.382-9.182c-2.577-2.298-6.284-2.818-9.393-1.318c-10.904,5.204-20.296,13.11-27.283,22.966
				c-6.088,8.66-9.798,18.766-10.758,29.308c-1.706-0.202-3.432,0.12-4.95,0.925c-17.597,8.706-28.918,26.448-29.4,46.075
				c0,29.483,26.8,53.475,59.733,53.475c24.135,0.631,46.289-13.289,56.192-35.308c5.491-13.576,4.56-28.905-2.533-41.717
				C305.545,325.856,300.292,319.905,294.133,314.992z M296.367,367.908L296.367,367.908c-7.284,15.575-23.185,25.276-40.367,24.625
				c-23.525,0-42.667-16.333-42.667-36.408c0.108-9.438,4.2-18.392,11.267-24.65c4.39,9.412,11.839,17.058,21.133,21.692
				c3.539,1.814,7.861,0.944,10.423-2.097c2.562-3.042,2.683-7.449,0.294-10.628c-11.563-14.855-11.997-35.54-1.067-50.867
				c1.678-2.402,3.566-4.649,5.642-6.717c0.617,17.374,8.532,33.683,21.8,44.917l0.158,0.133c4.59,3.612,8.547,7.963,11.708,12.875
				C299.325,349.106,299.941,359.079,296.367,367.908z"/>
		</g>
	</g>
</g>
<g>
</g>
<g>
</g>
<g>
</g>
<g>
</g>
<g>
</g>
<g>
</g>
<g>
</g>
<g>
</g>
<g>
</g>
<g>
</g>
<g>
</g>
<g>
</g>
<g>
</g>
<g>
</g>
<g>
</g>
</svg>
