<svg height="512" viewBox="0 0 48 60" width="512" xmlns="http://www.w3.org/2000/svg"><path id="Shape" d="m3 61h42c1.6568542 0 3-1.3431458 3-3v-5c-.0010312-2.6350029-1.1593195-5.1365839-3.168-6.842 1.4012828-2.3172185 1.5367261-5.185609.3600261-7.6245579-1.1767001-2.438949-3.5061661-4.1181145-6.1920261-4.4634421v-3.908c.4716459-.6260947.7277654-1.3881381.73-2.172 0-1.761 1.764-3.224 1.138-5.3-.3116613-.9971351-.9756764-1.8467048-1.868-2.39v-9.9l3-.733v3.614c-.6158265.3538758-.9967868 1.0087465-1 1.719v3c0 1.1045695.8954305 2 2 2h1.992c.6188402.0004668 1.2030403-.2855652 1.5821855-.7746586s.5105248-1.1261518.3558145-1.7253414l-.769-3c-.2280464-.8832202-1.0248142-1.5002318-1.937-1.5h-.224v-3.825l.878-.215c.6773156-.15962984 1.155907-.76412779 1.155907-1.46s-.4785914-1.30037016-1.155907-1.46c-22.092-5.401-20.654-5.149-21.333-4.983l-20.404 4.983c-.67731562.15962984-1.15590699.76412779-1.15590699 1.46s.47859137 1.30037016 1.15590699 1.46c-.1 0 1.157.283 5.859 1.431v9.909c-.89221524.5447925-1.55607377 1.395228-1.868 2.393-.621 2.058 1.138 3.572 1.138 5.3.00288196.7828347.25896808 1.5437262.73 2.169v3.908c-2.68585998.3453276-5.01532604 2.0244931-6.19202609 4.4634421-1.17670006 2.4389489-1.04125674 5.3073394.36002609 7.6245579-2.00868052 1.7054161-3.16696884 4.2069971-3.168 6.842v5c0 .7956495.31607052 1.5587112.87867966 2.1213203.56260913.5626092 1.32567087.8786797 2.12132034.8786797zm42-43h-2v-3h1.224zm-1.816 27.038c-1.2891919-.681915-2.725568-1.0382627-4.184-1.038h-7v-6.874c2.493-4.042 2.449-5.791 2.974-5.631.6575091.2112511 1.3632863.2203084 2.026.026v5.479c0 .5522847.4477153 1 1 1s1-.4477153 1-1v-.909c1.9394646.3360954 3.5921887 1.5989789 4.426013 3.3820157.8338243 1.7830367.7434538 3.8610658-.242013 5.5649843zm-32.914-17.048c0-2.159-1.538-3.676-1.223-4.721.23346591-.7243904.80437183-1.2901603 1.5308425-1.5170705.7264706-.2269102 1.5178991-.0866601 2.1221575.3760705.2954046.2223351.6893805.2635354 1.0243926.1071266.335012-.1564087.5563875-.4849012.5756074-.8541266.015-.282-.058-.155 4.2-2.67 3.656455.3870028 7.343545.3870028 11 0 4.147 2.449 4.187 2.381 4.2 2.67.0192199.3692254.2405954.6977179.5756074.8541266.3350121.1564088.728988.1152085 1.0243926-.1071266.6041931-.4618545 1.3950243-.6015835 2.1209019-.3747344.7258776.2268492 1.2964129.7920286 1.5300981 1.5157344.31 1.029-1.223 2.58-1.223 4.721-.0032768.5293488-.2557078 1.0262313-.681287 1.3410379-.4255793.3148067-.9745847.4107575-1.481713.2589621-1.1485004-.3353122-2.3610508.2729265-2.779 1.394-5.124 13.218-12.35 13.481-17.576 0-.418312-1.120233-1.62986-1.7281876-2.778-1.394-.5070794.1527581-1.0565137.0571702-1.4822082-.2578674-.4256946-.3150376-.6776841-.8125478-.6797918-1.3421326zm5.153-9.8c-.9491648.4524239-1.8303711 1.0354069-2.618 1.732-.5743526-.2153464-1.1878673-.306351-1.8-.267v-3.174c1.3625175.8219936 2.8573699 1.4012574 4.418 1.712zm21.577 1.467c-.6122206-.0394302-1.2258209.0519281-1.8.268-.7937039-.6886337-1.6737844-1.2708718-2.618-1.732 1.5606301-.3107426 3.0554825-.8900064 4.418-1.712zm-7 20.19v5c-1.5 4.226-10.511 4.227-12 0v-5c3.771 4.212 8.228 4.213 12 0zm-13.678 6.153c.644 1.345 2.56 4 7.678 4s7.034-2.655 7.678-4h4.322l-11.992 9-12.008-9zm7.7-43 18.408 4.5-18.41 4.5-18.428-4.5zm-.471 10.944c.678.163-.072.248 13.452-3.058v2.907c-2.524 4.328-23.523 4.275-26 .02v-2.933zm-14.551 22.147v.909c0 .5522847.44771525 1 1 1 .5522847 0 1-.4477153 1-1v-5.479c.6630589.1942671 1.3691421.1852103 2.027-.026.5-.16.531 1.67 2.973 5.63v6.875h-7c-1.45843197-.0002627-2.8948081.356085-4.184 1.038-.98546685-1.7039185-1.07583729-3.7819476-.24201301-5.5649843.83382428-1.7830368 2.48654841-3.0459203 4.42601301-3.3820157zm-7 16.909c.00483341-3.7411642 2.95055048-6.8172539 6.688-6.984l14.121 10.584c.7044279.5333677 1.6775721.5333677 2.382 0l14.121-10.584c3.7374495.1667461 6.6831666 3.2428358 6.688 6.984v5c0 .5522847-.4477153 1-1 1h-42c-.55228475 0-1-.4477153-1-1z" transform="translate(0 -1)"/></svg>