<svg height="512" viewBox="0 0 24 60" width="512" xmlns="http://www.w3.org/2000/svg"><g id="007---Water-Cooler"><path id="Shape" d="m3 60h18c1.6568542 0 3-1.3431458 3-3v-22c0-2.48-1.37-5-4-5h-.23l1.86-3.11c.8150882-.2705167 1.3664837-1.031201 1.37-1.89v-1c-.0042869-.7102221-.3849109-1.3648954-1-1.72v-10.56c.6150891-.3551046.9957131-1.0097779 1-1.72v-1c-.0042869-.71022212-.3849109-1.36489541-1-1.72v-2.56c.6150891-.35510459.9957131-1.00977788 1-1.72v-1c0-1.1045695-.8954305-2-2-2h-18c-1.1045695 0-2 .8954305-2 2v1c.00428692.71022212.38491093 1.36489541 1 1.72v2.56c-.61508907.35510459-.99571308 1.00977788-1 1.72v1c.00428692.7102221.38491093 1.3648954 1 1.72v10.56c-.61508907.3551046-.99571308 1.0097779-1 1.72v1c.00351634.858799.55491183 1.6194833 1.37 1.89l1.86 3.11h-.23c-2.63 0-4 2.52-4 5v22c0 1.6568542 1.34314575 3 3 3zm19-22h-20v-2h20zm-11 20v-4h2v4zm10 0h-6v-4c0-1.1045695-.8954305-2-2-2h-2c-1.1045695 0-2 .8954305-2 2v4h-6c-.55228475 0-1-.4477153-1-1v-17h20v17c0 .5522847-.4477153 1-1 1zm-18-34h18v1h-18zm0-15h18v1h-18zm1-4h16v2h-16zm0 7h16v10h-16zm-1-10h18v1h-18zm1.77 25h14.46l-1.8 3h-10.86zm-.77 5h16c1.15 0 1.68 1 1.89 2h-19.78c.21-1 .74-2 1.89-2z"/><path id="Shape" d="m9 42h-2c-1.1045695 0-2 .8954305-2 2v3c0 1.1045695.8954305 2 2 2 0 .5522847.44771525 1 1 1s1-.4477153 1-1c1.1045695 0 2-.8954305 2-2v-3c0-1.1045695-.8954305-2-2-2zm-2 5v-3h2v3z"/><path id="Shape" d="m17 42h-2c-1.1045695 0-2 .8954305-2 2v3c0 1.1045695.8954305 2 2 2 0 .5522847.4477153 1 1 1s1-.4477153 1-1c1.1045695 0 2-.8954305 2-2v-3c0-1.1045695-.8954305-2-2-2zm-2 5v-3h2v3z"/><path id="Shape" d="m7 14c-.55228475 0-1 .4477153-1 1v4c0 .5522847.44771525 1 1 1s1-.4477153 1-1v-4c0-.5522847-.44771525-1-1-1z"/></g></svg>