<svg height="504pt" viewBox="0 0 504.00134 504" width="504pt" xmlns="http://www.w3.org/2000/svg"><path d="m228.273438 398.882812c-17.925782-11.527343-41.804688-6.347656-53.34375 11.570313-11.539063 17.917969-6.375 41.796875 11.535156 53.351563 17.910156 11.550781 41.792968 6.40625 53.359375-11.5 5.59375-8.601563 7.519531-19.085938 5.351562-29.117188-2.171875-10.027344-8.253906-18.777344-16.902343-24.304688zm-2.515626 44.332032c-6.695312 9.929687-20.03125 12.804687-30.21875 6.515625-10.109374-6.546875-13.003906-20.046875-6.46875-30.160157 6.535157-10.117187 20.03125-13.027343 30.15625-6.5 10.121094 6.523438 13.042969 20.015626 6.53125 30.144532zm0 0"/><path d="m72.574219 250.914062c-17.566407.039063-32.894531 11.929688-37.292969 28.9375-4.402344 17.007813 3.230469 34.839844 18.574219 43.394532 15.34375 8.554687 34.53125 5.671875 46.683593-7.011719 12.152344-12.683594 14.210938-31.976563 5.007813-46.9375-7.027344-11.464844-19.523437-18.433594-32.972656-18.382813zm11.527343 57.25c-10.316406 6.101563-23.609374 2.933594-30.066406-7.15625-6.296875-10.269531-3.085937-23.695312 7.175782-30.003906 10.257812-6.304687 23.691406-3.109375 30.007812 7.148438 6.316406 10.253906 3.128906 23.6875-7.117188 30.011718zm0 0"/><path d="m467.570312 348.085938c-14.601562-24.621094-22.316406-52.714844-22.324218-81.339844v-132.449219c-.089844-74.132813-60.164063-134.2070312-134.296875-134.296875h-235.015625c-4.636719 0-8.394532 3.757812-8.394532 8.394531-.085937 42.316407 16.722657 82.921875 46.703126 112.789063 29.863281 29.972656 70.460937 46.777344 112.773437 46.6875 7.445313.011718 14.875.742187 22.183594 2.179687-7.824219 14.824219-14.269531 28.40625-20.195313 41.054688-6.085937 12.933593-11.933594 25.246093-18.53125 37.382812-24.773437-10.917969-53.117187-10.277343-77.371094 1.746094-19.164062-29.609375-56.886718-41.089844-89.296874-27.167969-32.40625 13.921875-50.054688 49.183594-41.773438 83.46875 8.285156 34.285156 40.082031 57.601563 75.269531 55.191406 35.191407-2.40625 63.515625-29.839843 67.046875-64.933593 17.957032-8.640625 38.703125-9.402344 57.242188-2.097657 5.433594 17.542969 11.863281 40.765626-2.40625 64.914063-2.367188.277344-4.734375.664063-7.101563 1.175781-33.65625 7.285156-57.476562 37.328125-56.902343 71.757813.578124 34.429687 25.390624 63.65625 59.273437 69.8125 33.878906 6.15625 67.386719-12.480469 80.039063-44.503907 12.648437-32.027343.914062-68.53125-28.03125-87.1875-.175782-.109374-.359376-.195312-.535157-.3125 13.851563-24.515624 15.011719-54.214843 3.113281-79.738281 16.65625-9.597656 33.871094-18.191406 51.554688-25.742187 11.75-5.261719 23.96875-10.75 37.457031-17.625 4.273438 12.261718 6.460938 25.148437 6.472657 38.132812v16.785156c.058593 55.601563 45.121093 100.660157 100.722656 100.722657h50.359375c3.515625 0 6.660156-2.191407 7.878906-5.492188 1.214844-3.300781.246094-7.007812-2.429687-9.289062-13.316407-11.382813-24.632813-24.90625-33.484376-40.019531zm-39.113281-213.789063v132.449219c.027344 26.539062 6.054688 52.730468 17.628907 76.613281-29.53125-2.25-42.808594-12.875-42.808594-74.769531.078125-20.941406-3.527344-41.734375-10.652344-61.429688-4.300781-11.988281-9.96875-23.441406-16.894531-34.128906-10.726563-16.449219-24.503907-30.695312-40.582031-41.96875l24.820312-40.496094c12.148438 7.484375 19.132812 21.101563 18.128906 35.335938 0 4.636718 3.757813 8.394531 8.394532 8.394531 4.632812 0 8.390624-3.757813 8.390624-8.394531 0-67.148438-81.902343-67.148438-125.898437-67.148438-18.636719 0-32.332031-4.867187-40.726563-14.46875-6.285156-7.800781-9.773437-17.480468-9.90625-27.496094h92.597657c64.871093.066407 117.4375 52.636719 117.507812 117.507813zm-140.320312-26.019531c-17.117188-5.0625-34.878907-7.605469-52.726563-7.554688-75.40625 0-94.703125-60.433594-99.355468-83.933594h65.46875c.140624 14.007813 5.054687 27.550782 13.933593 38.390626 11.742188 13.511718 29.746094 20.363281 53.527344 20.363281 19.054687-.292969 38.101563.949219 56.957031 3.71875-14.882812 6.265625-27.902344 16.261719-37.804687 29.015625zm-61.121094 42.804687c-37.855469.082031-74.175781-14.953125-100.898437-41.765625-24.765626-24.675781-39.5625-57.621094-41.546876-92.527344h34.511719c4.609375 24.75 26.121094 100.71875 116.328125 100.71875 14.144532-.042968 28.242188 1.675782 41.964844 5.113282-1.007812 1.476562-2.003906 2.785156-3.011719 4.355468-6.296875 9.753907-11.75 18.9375-16.789062 27.699219-10.011719-2.390625-20.265625-3.59375-30.558594-3.59375zm-125.355469 185.671875c-26.058594 16.015625-60.167968 7.882813-76.191406-18.167968-16.027344-26.054688-7.90625-60.164063 18.140625-76.199219 26.046875-16.035157 60.160156-7.925781 76.203125 18.113281 7.8125 12.492188 10.289062 27.59375 6.875 41.925781-3.410156 14.332031-12.425781 26.695313-25.027344 34.328125zm42.277344-58.417968c-.707031-4.457032-1.832031-8.839844-3.359375-13.085938 19.210937-9.441406 41.535156-10.230469 61.367187-2.171875-.890624 1.46875-1.679687 2.917969-2.636718 4.386719-1.574219 2.554687-2.316406 5.535156-2.132813 8.527344-17.554687-4.863282-36.195312-4.046876-53.253906 2.34375zm110.003906 183.050781c-13.597656 21.046875-39.628906 30.34375-63.480468 22.675781-23.855469-7.667969-39.589844-30.390625-38.378907-55.417969 1.210938-25.023437 19.066407-46.121093 43.550781-51.449219 3.886719-.839843 7.851563-1.265624 11.824219-1.269531 20.265625.054688 38.882813 11.160157 48.5625 28.960938 9.683594 17.796875 8.886719 39.460937-2.078125 56.5zm-36.015625-101.417969c12.699219-28.417969 4.371094-55.226562-.839843-72.089844l-.714844-2.316406c-1.0625-3.191406-1.867188-6.464844-2.40625-9.785156 2.375-3.738282 4.554687-7.40625 6.664062-11.089844.21875-.28125.421875-.578125.601563-.890625 8.613281-14.972656 15.605469-29.820313 23-45.542969 12.777343-28.414062 27.570312-55.882812 44.265625-82.1875 20.773437-32.375 39.242187-41.277344 50.4375-43.292968l-22.109375 36.042968-.082031.082032v.125l-28.269532 46.164062c0 .042969-.074218.066406-.101562.109375-.023438.042969 0 .117187-.066406.167969l-3.359376 5.449218-53.882812 103.992188c-1.378906 2.6875-1.21875 5.902344.417969 8.4375 12.152343 21.75 11.851562 48.3125-.789063 69.78125-4.148437-1.445312-8.421875-2.5-12.765625-3.15625zm80.199219-168.078125c4.269531 3.242187 8.308594 6.78125 12.085938 10.585937l-25.757813 15.804688zm-4.375 57.65625c-11.328125 5.035156-22.34375 10.070313-33.699219 15.855469l9.460938-18.257813 51.746093-31.894531c3.878907 5.195312 7.316407 10.707031 10.273438 16.476562-13.574219 6.96875-25.894531 12.523438-37.78125 17.820313zm151.496094 136.550781c-46.335938-.050781-83.886719-37.597656-83.9375-83.933594v-16.785156c.054687-42.621094-20.207032-82.714844-54.554688-107.949218l19.640625-32.039063c13.9375 9.960937 25.894531 22.4375 35.25 36.789063 6.21875 9.617187 11.3125 19.917968 15.183594 30.695312 6.460937 17.863281 9.730469 36.722656 9.664063 55.714844 0 75.238281 21.46875 90.207031 69.246093 91.992187 5.582031 9.070313 11.984375 17.609375 19.117188 25.515625zm0 0"/></svg>