<?xml version="1.0" encoding="iso-8859-1"?>
<!-- Generator: Adobe Illustrator 19.0.0, SVG Export Plug-In . SVG Version: 6.00 Build 0)  -->
<svg version="1.1" id="Layer_1" xmlns="http://www.w3.org/2000/svg" xmlns:xlink="http://www.w3.org/1999/xlink" x="0px" y="0px"
	 viewBox="0 0 512.477 512.477" style="enable-background:new 0 0 512.477 512.477;" xml:space="preserve">
<g transform="translate(1 1)">
	<g>
		<path d="M510.646,396.039c-1.707-10.24-8.533-19.627-17.067-26.453L290.486,215.954v-44.342c0-12.8-10.24-23.04-23.04-23.04
			h-3.413v-17.92c23.893-4.267,42.667-24.747,42.667-50.347c0-28.16-23.04-51.2-51.2-51.2c-28.16,0-51.2,23.04-51.2,51.2
			c0,5.12,3.413,8.533,8.533,8.533c5.12,0,8.533-3.413,8.533-8.533c0-18.773,15.36-34.133,34.133-34.133
			c18.773,0,34.133,15.36,34.133,34.133s-15.36,34.133-34.133,34.133c-5.12,0-8.533,4.267-8.533,9.387v24.747h-2.56
			c-12.8,0-23.04,10.24-23.04,23.04v43.051l-204.8,154.923c-9.387,6.827-15.36,16.213-17.067,26.453
			c-1.707,12.8,0.853,25.6,9.387,35.84c8.533,9.387,20.48,15.36,33.28,15.36h68.267c0,18.773,15.36,34.133,34.133,34.133
			c18.773,0,34.133-15.36,34.133-34.133h153.6c0,18.773,15.36,34.133,34.133,34.133s34.133-15.36,34.133-34.133h68.267
			c12.8,0,24.747-5.973,32.427-15.36C509.793,421.639,513.206,408.839,510.646,396.039z M237.579,171.612
			c0-3.413,2.56-5.973,5.973-5.973h7.912c1.169,0.55,2.525,0.853,4.035,0.853c1.366,0,2.605-0.311,3.695-0.853h7.398
			c3.413,0,5.973,2.56,5.973,5.973v30.72l-9.387-7.68c-2.175-1.74-5.016-2.588-7.956-2.554c-0.83-0.011-1.659,0.073-2.477,0.241
			c-2.013,0.362-4,1.126-5.78,2.313l-9.387,7.68V171.612z M144.566,464.305c-9.387,0-17.067-7.68-17.067-17.067v-34.133v-17.067
			c0-9.387,7.68-17.067,17.067-17.067c9.387,0,17.067,7.68,17.067,17.067v17.067v34.133
			C161.632,456.625,153.952,464.305,144.566,464.305z M332.299,396.039h-153.6c0-18.773-15.36-34.133-34.133-34.133
			c-18.773,0-34.133,15.36-34.133,34.133H67.766l187.733-142.507l187.733,142.507h-42.667c0-18.773-15.36-34.133-34.133-34.133
			S332.299,377.265,332.299,396.039z M178.699,430.172v-17.067h153.6v17.067H178.699z M366.432,464.305
			c-9.387,0-17.067-7.68-17.067-17.067v-34.133v-17.067c0-9.387,7.68-17.067,17.067-17.067s17.067,7.68,17.067,17.067v17.067v34.133
			C383.499,456.625,375.819,464.305,366.432,464.305z M488.459,420.785c-5.12,5.973-11.947,9.387-19.627,9.387h-68.267v-17.067
			h68.267h5.973l4.267-12.8l-217.6-164.693c-3.413-2.56-8.533-2.56-11.947,0L39.606,395.185c-3.413,2.56-5.12,6.827-3.413,11.093
			s5.12,6.827,9.387,6.827h64.853v17.067H42.166c-7.68,0-14.507-3.413-19.627-9.387s-6.827-13.653-5.12-21.333
			c0.853-5.973,4.267-11.947,10.24-16.213l202.708-153.36l25.551-18.696l227.42,172.056c5.12,4.267,9.387,10.24,10.24,16.213
			C495.286,407.132,493.579,414.812,488.459,420.785z"/>
	</g>
</g>
<g>
</g>
<g>
</g>
<g>
</g>
<g>
</g>
<g>
</g>
<g>
</g>
<g>
</g>
<g>
</g>
<g>
</g>
<g>
</g>
<g>
</g>
<g>
</g>
<g>
</g>
<g>
</g>
<g>
</g>
</svg>
