<svg height="512pt" viewBox="0 0 512 512.02216" width="512pt" xmlns="http://www.w3.org/2000/svg"><path d="m36.902344 144.679688c5.671875 12.054687 13.5625 22.941406 23.253906 32.085937 8.378906 7.804687 15.3125 17.027344 20.480469 27.246094 2.460937 5.417969 7.578125 9.152343 13.488281 9.847656.722656.082031 1.449219.125 2.175781.128906 5.238281.015625 10.195313-2.378906 13.441407-6.488281l1.332031-1.652344c2.003906-2.5 4.265625-5.351562 6.484375-8.457031 7.734375 20.601563 9.480468 42.96875 5.042968 64.519531-2.464843 1.144532-4.921874 2.371094-7.371093 3.773438-63.292969 36.171875-64.019531 74.074218-64.019531 75.671875.003906 3.449219 2.082031 6.5625 5.269531 7.882812 3.1875 1.320313 6.859375.589844 9.296875-1.851562 5.75-5.054688 13.046875-8.003907 20.695312-8.371094-11.3125 15.609375-17.652344 34.269531-18.195312 53.539063-.011719 2.964843 1.511718 5.722656 4.027344 7.289062 2.515624 1.566406 5.660156 1.714844 8.3125.390625 5.054687-2.371094 10.324218-4.253906 15.738281-5.632813-5.578125 13.800782-6.296875 29.089844-2.042969 43.351563.9375 2.804687 3.257812 4.929687 6.136719 5.609375 2.878906.679688 5.90625-.179688 7.996093-2.273438 4.367188-4.113281 9.777344-6.957031 15.640626-8.226562-6.457032 16.410156-4.453126 34.945312 5.359374 49.597656 1.875 2.796875 5.21875 4.230469 8.539063 3.660156 3.320313-.570312 5.992187-3.042968 6.820313-6.308593 1.8125-7.644531 6.222656-14.429688 12.476562-19.191407 1.066406-.582031 2.21875-.996093 3.414062-1.226562-1.648437 12.859375-1.707031 34.738281 14.71875 42.964844 2.210938 1.085937 4.777344 1.167968 7.050782.230468 2.277344-.933593 4.039062-2.804687 4.84375-5.128906 3.867187-11.261718 14.152344-19.074218 26.035156-19.769531 6.21875.210937 12.355469 1.445313 18.167969 3.652344 9.699219 2.828125 16.261719 11.847656 15.96875 21.945312 0 4.714844 3.820312 8.535157 8.53125 8.535157 4.714843 0 8.535156-3.820313 8.535156-8.535157 0-25.113281 32.757813-25.597656 34.132813-25.597656 11.886718.6875 22.171874 8.5 26.035156 19.761719.777344 2.355468 2.546875 4.257812 4.839844 5.207031 2.296874.949219 4.890624.851563 7.105468-.265625 16.453125-8.226562 16.367188-30.105469 14.71875-42.964844 1.195313.230469 2.347656.644532 3.414063 1.226563 6.234375 4.738281 10.636719 11.484375 12.460937 19.097656.820313 3.269531 3.492188 5.746094 6.8125 6.324219 3.320313.578125 6.667969-.855469 8.546875-3.652344 9.816407-14.65625 11.816407-33.191406 5.359375-49.605469 5.867188 1.269531 11.273438 4.117188 15.640625 8.234375 2.089844 2.09375 5.117188 2.953125 7.996094 2.273438 2.878906-.679688 5.199219-2.800782 6.136719-5.609375 4.253906-14.261719 3.535156-29.546875-2.042969-43.347657 5.414063 1.375 10.683594 3.261719 15.738281 5.632813 2.644532 1.300781 5.769532 1.148437 8.273438-.410156 2.503906-1.554688 4.027344-4.289063 4.03125-7.238281-.542969-19.269532-6.882813-37.925782-18.195313-53.539063 7.644531.378906 14.9375 3.328125 20.695313 8.371094 2.441406 2.441406 6.109375 3.171875 9.296875 1.851562 3.1875-1.320312 5.269531-4.433593 5.269531-7.882812 0-1.597657-.726562-39.5-64-75.671875-2.449219-1.402344-4.90625-2.628906-7.363281-3.773438-4.414063-21.546875-2.664063-43.898437 5.050781-64.496094 2.242188 3.097657 4.460938 5.972657 6.46875 8.433594l1.320312 1.644532c3.25 4.117187 8.207032 6.511718 13.449219 6.496093.726563-.003906 1.453125-.046875 2.175781-.128906 5.890626-.6875 10.996094-4.398437 13.464844-9.789063 5.175782-10.246093 12.128906-19.492187 20.53125-27.304687 9.6875-9.148437 17.574219-20.03125 23.246094-32.085937 4.863281-10.394532 11.648438-19.773438 20.003906-27.640626 9.949219-8.460937 16.03125-20.601562 16.851563-33.636718.070312-7.851563-2.859375-15.429688-8.191407-21.1875-.703124-.710938-1.527343-1.289063-2.433593-1.707032-13.457031-6.171874-132.667969-60.4843745-168.148438-60.4843745-9.007812-.3398435-17.730469 3.1796875-23.988281 9.6679685-7.007812 8.339844-10.960938 18.828125-11.195312 29.71875-9.496094-2.363281-19.164063-4-28.910157-4.894531-2.753906-.25-5.597656-.359375-8.363281-.359375h-9.539062c-2.765626 0-5.605469.109375-8.371094.367188-9.746094.886718-19.410156 2.523437-28.902344 4.898437-.234375-10.898437-4.183594-21.386719-11.195312-29.730469-6.257813-6.488281-14.980469-10.007812-23.988282-9.6679685-35.480468 0-154.691406 54.3125005-168.164062 60.5156245-.90625.421876-1.730469 1-2.433594 1.707032-5.320312 5.753906-8.2421875 13.320312-8.1757812 21.15625.8320312 13.039062 6.9335932 25.175781 16.8984372 33.628906 8.347656 7.871094 15.132813 17.25 19.992188 27.648438zm112.136718 301.226562c-4.496093 2.558594-8.394531 6.046875-11.425781 10.238281-.554687-8.667969 1.546875-17.304687 6.03125-24.746093 1.359375-2.035157 1.78125-4.558594 1.152344-6.925782-.628906-2.371094-2.246094-4.351562-4.4375-5.445312-10.1875-4.796875-22.082031-4.261719-31.792969 1.433594.339844-11.222657 3.609375-22.160157 9.480469-31.726563 1.730469-2.621094 1.886719-5.976563.402344-8.742187-1.480469-2.769532-4.363281-4.496094-7.503907-4.503907-8.230468.160157-16.390624 1.53125-24.21875 4.078125 3.664063-15.195312 11.136719-29.207031 21.71875-40.710937 2.085938-2.09375 2.945313-5.113281 2.265626-7.992188-.679688-2.875-2.800782-5.195312-5.601563-6.128906-9.660156-3.378906-20.113281-3.773437-30.003906-1.136719 12.269531-18.285156 29.011719-33.121094 48.640625-43.101562 35.769531-20.429688 75.757812-6.828125 98.984375 4.863281-21.074219 5.785156-26.453125 17.355469-26.453125 27.554687 0 19.019532 21.273437 47 49.246094 52.90625-1.832032 6.613282-4.332032 13.023438-7.457032 19.132813-5.363281 11.074219-14.585937 19.808594-25.933594 24.566406-2.386718 1.058594-4.828124 2.066407-7.277343 3.070313-10.949219 3.652344-20.996094 9.585937-29.484375 17.410156-3.703125 3.800781-6.902344 8.0625-9.511719 12.679688-5.808594-.671876-11.679687.457031-16.820313 3.234374zm149.640626-132.992188c0 12.492188-19.320313 36.976563-42.667969 36.976563-23.347657 0-42.667969-24.484375-42.667969-36.976563 0-10.488281 22.042969-14.226562 42.667969-14.226562s42.667969 3.738281 42.667969 14.226562zm35.371093 166.511719c-7.949219-11.714843-21.21875-18.691406-35.371093-18.605469-8.386719.214844-16.671876 1.863282-24.5 4.875-7.066407 2.691407-13.320313 7.148438-18.167969 12.953126-4.84375-5.804688-11.101563-10.261719-18.167969-12.953126-7.824219-3.015624-16.113281-4.664062-24.5-4.875-14.136719-.082031-27.390625 6.878907-35.34375 18.570313-1.351562-8.140625-1.0625-16.472656.855469-24.5 2.046875-4.894531 5.039062-9.339844 8.804687-13.082031 6.90625-6.039063 14.964844-10.621094 23.6875-13.464844 2.5625-1.074219 5.1875-2.132812 7.722656-3.25 14.910157-6.335938 27.042969-17.820312 34.1875-32.359375.988282-1.929687 1.875-3.925781 2.761719-5.914063.855469 1.996094 1.777344 3.984376 2.765625 5.914063 7.144532 14.542969 19.28125 26.027344 34.195313 32.359375 2.558593 1.117188 5.117187 2.175781 7.679687 3.25 8.722656 2.84375 16.777344 7.421875 23.679688 13.464844 3.773437 3.746094 6.773437 8.195312 8.820312 13.101562 1.949219 8.027344 2.25 16.367188.890625 24.515625zm102.867188-155.820312c-9.894531-2.636719-20.351563-2.246094-30.019531 1.128906-2.804688.933594-4.921876 3.253906-5.601563 6.128906-.679687 2.878907.175781 5.898438 2.265625 7.992188 10.632812 11.472656 18.117188 25.5 21.726562 40.722656-7.824218-2.554687-15.984374-3.933594-24.210937-4.089844-3.144531 0-6.03125 1.730469-7.515625 4.5-1.488281 2.769531-1.332031 6.132813.40625 8.753907 5.875 9.574218 9.144531 20.515624 9.492188 31.742187-9.714844-5.691406-21.609376-6.226563-31.796876-1.433594-2.191406 1.09375-3.808593 3.078125-4.4375 5.445313-.625 2.367187-.207031 4.890625 1.152344 6.929687 4.46875 7.449219 6.566406 16.078125 6.023438 24.746094-3.03125-4.1875-6.921875-7.679687-11.417969-10.242187-5.132813-2.789063-11.003906-3.929688-16.808594-3.265626-2.621093-4.621093-5.824219-8.882812-9.53125-12.679687-8.480469-7.828125-18.527343-13.761719-29.476562-17.410156-2.449219-1.007813-4.886719-2.011719-7.269531-3.070313-11.347657-4.753906-20.574219-13.488281-25.941407-24.558594-3.125-6.113281-5.621093-12.527343-7.457031-19.140624 27.972656-5.890626 49.246094-33.835938 49.246094-52.890626 0-10.238281-5.394532-21.785156-26.453125-27.570312 23.183593-11.726562 63.144531-25.363281 99.039062-4.847656 19.609375 9.988281 36.335938 24.828125 48.585938 43.109375zm-115.292969-302.164063c3.070312-3.046875 7.296875-4.628906 11.613281-4.351562 26.453125 0 122.222657 41.199218 159.273438 58.136718 1.601562 2.425782 2.449219 5.269532 2.433593 8.175782-1.015624 8.417968-5.25 16.113281-11.820312 21.476562-9.6875 9.144532-17.574219 20.027344-23.242188 32.085938-4.863281 10.398437-11.65625 19.777344-20.011718 27.648437-9.828125 9.324219-18.035156 20.21875-24.285156 32.238281l-1.355469-1.707031c-14.574219-16.054687-22.382813-37.117187-21.804688-58.792969.050781-.214843.09375-.429687.121094-.648437 0-.050781-.050781-.417969-.136719-.992187-.09375-61.097657-16.496094-100.554688-41.847656-100.554688-10.183594.078125-19.175781 6.652344-22.339844 16.332031-4.339844-2.179687-8.789062-4.125-13.332031-5.835937-.535156-8.285156 1.847656-16.5 6.734375-23.210938zm48.640625 63.425782c-7.613281-9.925782-16.765625-18.566407-27.109375-25.597657 1.226562-4.265625 3.410156-8.023437 7.386719-8.023437 5.597656-.023438 14.277343 10.328125 19.738281 33.621094zm-125.800781-33.355469c2.238281-.210938 4.53125-.289063 6.777344-.289063h9.539062c2.246094 0 4.539062.078125 6.769531.28125 12.109375 1.074219 24.070313 3.46875 35.660157 7.140625.246093.097657.5.179688.757812.25 8.738281 2.828125 17.132812 6.628907 25.019531 11.332031.230469.152344.460938.289063.710938.425782 23.96875 14.210937 40.621093 38.101562 45.660156 65.511718-.167969 14.472657 2.613281 28.824219 8.175781 42.1875-10.953125 24.125-15.382812 50.699219-12.84375 77.074219-50.140625-11.785156-98.191406 18.773438-109.054687 26.324219-1.84375-.058594-3.652344-.128906-5.625-.128906-1.96875 0-3.78125.070312-5.621094.128906-10.855469-7.550781-58.882813-38.117188-109.058594-26.324219 2.539063-26.367187-1.890625-52.9375-12.84375-77.058593 5.515625-13.304688 8.292969-27.585938 8.160157-41.992188 1.433593-9.207031 15.027343-76.074219 107.816406-84.863281zm-102.738282 33.375c5.460938-23.296875 14.15625-33.664063 19.738282-33.664063 3.964844 0 6.160156 3.71875 7.386718 8.019532-10.355468 7.042968-19.511718 15.699218-27.125 25.644531zm-122.265624-9.632813c37.023437-16.933594 132.855468-58.164062 159.324218-58.164062 4.316406-.277344 8.542969 1.304687 11.613282 4.351562 4.890624 6.710938 7.277343 14.921875 6.742187 23.210938-4.542969 1.710937-8.996094 3.660156-13.335937 5.835937-3.167969-9.675781-12.160157-16.25-22.339844-16.332031-25.328125 0-41.710938 39.378906-41.816406 100.53125-.085938.597656-.136719.964844-.136719 1.015625 0 .246094.078125.46875.070312.714844.582031 21.660156-7.230469 42.707031-21.804687 58.746093l-1.628906 1.703126c-6.042969-12.078126-14.171876-23-24.011719-32.253907-8.363281-7.867187-15.15625-17.25-20.019531-27.648437-5.671876-12.0625-13.5625-22.949219-23.261719-32.09375-16.425781-16.160156-11.5625-26.519532-9.394531-29.617188zm0 0"/><path d="m153.613281 200.554688c0 16.496093 13.371094 29.867187 29.867188 29.867187 16.492187 0 29.863281-13.371094 29.863281-29.867187 0-16.492188-13.371094-29.867188-29.863281-29.867188-16.496094 0-29.867188 13.375-29.867188 29.867188zm29.867188-12.800782c7.066406 0 12.796875 5.730469 12.796875 12.800782 0 7.070312-5.730469 12.800781-12.796875 12.800781-7.070313 0-12.800781-5.730469-12.800781-12.800781 0-7.070313 5.730468-12.800782 12.800781-12.800782zm0 0"/><path d="m298.679688 200.554688c0 16.496093 13.371093 29.867187 29.867187 29.867187 16.492187 0 29.867187-13.371094 29.867187-29.867187 0-16.492188-13.375-29.867188-29.867187-29.867188-16.496094 0-29.867187 13.375-29.867187 29.867188zm29.867187-12.800782c7.066406 0 12.796875 5.730469 12.796875 12.800782 0 7.070312-5.730469 12.800781-12.796875 12.800781-7.070313 0-12.800781-5.730469-12.800781-12.800781 0-7.070313 5.730468-12.800782 12.800781-12.800782zm0 0"/><path d="m204.8125 136.554688c2.261719 0 4.433594-.898438 6.03125-2.5l25.601562-25.597657c3.234376-3.351562 3.1875-8.671875-.105468-11.964843-3.289063-3.289063-8.613282-3.335938-11.960938-.101563l-25.601562 25.597656c-2.4375 2.441407-3.167969 6.109375-1.847656 9.300781 1.320312 3.1875 4.433593 5.265626 7.882812 5.265626zm0 0"/><path d="m301.179688 134.054688c3.347656 3.234374 8.671874 3.1875 11.960937-.101563 3.292969-3.292969 3.339844-8.617187.105469-11.964844l-25.601563-25.597656c-3.347656-3.234375-8.667969-3.1875-11.960937.101563-3.292969 3.292968-3.339844 8.613281-.105469 11.964843zm0 0"/></svg>