<svg height="511pt" viewBox="0 0 511 511.99522" width="511pt" xmlns="http://www.w3.org/2000/svg"><path d="m17.5625 477.863281h8.535156v8.53125c0 14.140625 11.460938 25.601563 25.601563 25.601563h307.199219c14.136718 0 25.597656-11.460938 25.597656-25.601563v-8.53125h8.535156c9.425781 0 17.066406-7.640625 17.066406-17.066406v-25.601563c0-9.425781-7.640625-17.066406-17.066406-17.066406h-375.46875c-9.425781 0-17.066406 7.640625-17.066406 17.066406v25.601563c0 9.425781 7.640625 17.066406 17.066406 17.066406zm349.867188 8.53125c0 4.714844-3.820313 8.535157-8.53125 8.535157h-307.199219c-4.714844 0-8.535157-3.820313-8.535157-8.535157v-8.53125h324.265626zm-349.867188-51.199219h375.46875v25.601563h-375.46875zm0 0"/><path d="m471.835938 191.464844c.042968 0 .09375-.050782.136718-.09375v-.058594c23.929688-19.03125 38.605469-47.367188 40.332032-77.894531 1.730468-30.527344-9.648438-60.339844-31.277344-81.953125-21.605469-21.628906-51.417969-33.015625-81.941406-31.292969-30.527344 1.71875-58.867188 16.382813-77.90625 40.304687h-.058594c-.042969 0-.050782.101563-.09375.144532-3.167969 3.941406-6.058594 8.097656-8.644532 12.441406l-32.257812 55.03125-10.289062-10.289062c-11.203126-11.203126-26.398438-17.496094-42.242188-17.496094s-31.035156 6.292968-42.238281 17.496094l-6.035157 6.03125c-3.199218-3.199219-7.539062-5-12.070312-5-4.527344 0-8.867188 1.800781-12.070312 5l-18.089844 18.1875c-9.992188 9.996093-9.992188 26.199218 0 36.195312l-18.105469 18.109375c-6.664063 6.664063-6.664063 17.46875 0 24.132813l193.089844 193.039062c6.664062 6.664062 17.46875 6.664062 24.132812 0l18.101563-18.097656c4.800781 4.800781 11.3125 7.5 18.101562 7.5 6.789063 0 13.300782-2.699219 18.101563-7.5l18.101562-18.097656c6.660157-6.667969 6.660157-17.46875 0-24.132813l6.042969-6.035156c23.289062-23.34375 23.289062-61.136719 0-84.480469l-10.300781-10.296875 55.039062-32.265625c4.339844-2.585938 8.5-5.46875 12.441407-8.628906zm-78.265626-173.660156c38.984376-5.023438 76.746094 15.742187 93.382813 51.359374 16.636719 35.613282 8.335937 77.898438-20.535156 104.578126l-127.660157-127.667969c14.351563-15.613281 33.769532-25.628907 54.8125-28.269531zm-51.328124 345.53125-18.101563 18.097656-193.082031-193.082032 18.105468-18.109374zm36.207031 0c-1.601563 1.601562-3.773438 2.503906-6.039063 2.503906s-4.4375-.902344-6.039062-2.503906l-108.601563-108.613282-102.578125-102.578125-6.035156-6.03125c-3.324219-3.332031-3.324219-8.726562 0-12.058593l18.101562-18.101563 114.644532 114.636719 108.609375 108.613281 6.035156 6.035156zm24.140625-48.265626-6.042969 6.035157-102.578125-102.582031-102.570312-102.578126 6.03125-6.03125c16.664062-16.664062 43.675781-16.664062 60.339843 0l144.820313 144.816407c16.628906 16.679687 16.628906 43.664062 0 60.339843zm-10.703125-95.171874-99.292969-99.292969 34.515625-58.878907c.386719-.660156.855469-1.246093 1.265625-1.894531l124.285156 124.296875c-.648437.398438-1.234375.851563-1.902344 1.261719zm0 0"/></svg>