<?xml version="1.0" encoding="iso-8859-1"?>
<!-- Generator: Adobe Illustrator 19.0.0, SVG Export Plug-In . SVG Version: 6.00 Build 0)  -->
<svg version="1.1" id="Capa_1" xmlns="http://www.w3.org/2000/svg" xmlns:xlink="http://www.w3.org/1999/xlink" x="0px" y="0px"
	 viewBox="0 0 512 512" style="enable-background:new 0 0 512 512;" xml:space="preserve">
<g>
	<g>
		<g>
			<path d="M76.8,34.133c-14.114,0-25.6-11.486-25.6-25.6C51.2,3.823,47.378,0,42.667,0c-4.71,0-8.533,3.823-8.533,8.533
				c0,14.114-11.486,25.6-25.6,25.6C3.823,34.133,0,37.956,0,42.667c0,4.71,3.823,8.533,8.533,8.533c14.114,0,25.6,11.486,25.6,25.6
				c0,4.71,3.823,8.533,8.533,8.533c4.71,0,8.533-3.823,8.533-8.533c0-14.114,11.486-25.6,25.6-25.6c4.71,0,8.533-3.823,8.533-8.533
				C85.334,37.956,81.511,34.133,76.8,34.133z M42.667,51.226c-2.432-3.234-5.325-6.127-8.559-8.559
				c3.234-2.432,6.127-5.325,8.559-8.559c2.432,3.234,5.316,6.127,8.559,8.559C47.983,45.099,45.099,47.991,42.667,51.226z"/>
			<path d="M503.466,110.933h-8.533V102.4c0-4.71-3.823-8.533-8.533-8.533s-8.533,3.823-8.533,8.533v8.533h-8.533
				c-4.71,0-8.533,3.823-8.533,8.533s3.823,8.533,8.533,8.533h8.533v8.533c0,4.71,3.823,8.533,8.533,8.533s8.533-3.823,8.533-8.533
				V128h8.533c4.71,0,8.533-3.823,8.533-8.533S508.177,110.933,503.466,110.933z"/>
			<path d="M151.099,429.167c-3.337-3.336-8.73-3.336-12.066,0L128,440.201l-11.034-11.034c-3.337-3.336-8.73-3.336-12.066,0
				c-3.337,3.337-3.337,8.73,0,12.066l11.034,11.034L104.9,463.3c-3.337,3.336-3.337,8.73,0,12.066c1.664,1.664,3.849,2.5,6.033,2.5
				c2.185,0,4.369-0.836,6.033-2.5L128,464.333l11.034,11.034c1.664,1.664,3.849,2.5,6.033,2.5c2.185,0,4.369-0.836,6.033-2.5
				c3.337-3.337,3.337-8.73,0-12.066l-11.034-11.034l11.034-11.034C154.436,437.897,154.436,432.503,151.099,429.167z"/>
			<circle cx="401.066" cy="401.067" r="8.533"/>
			<circle cx="494.933" cy="494.933" r="8.533"/>
			<circle cx="76.8" cy="341.333" r="8.533"/>
			<path d="M264.533,0C170.427,0,93.866,84.215,93.866,187.733c0,90.663,58.727,166.517,136.533,183.959v29.375
				c0,4.71,3.823,8.533,8.533,8.533H256v34.133c0,14.114,11.486,25.6,25.6,25.6c4.702,0,8.533,3.831,8.533,8.533v8.533
				c0,4.702-3.831,8.533-8.533,8.533c-4.71,0-8.533,3.823-8.533,8.533S276.889,512,281.6,512c14.114,0,25.6-11.486,25.6-25.6v-8.533
				c0-14.114-11.486-25.6-25.6-25.6c-4.702,0-8.533-3.831-8.533-8.533V409.6h17.067c4.71,0,8.533-3.823,8.533-8.533v-29.375
				C376.472,354.25,435.2,278.396,435.2,187.733C435.2,84.215,358.639,0,264.533,0z M281.6,392.533h-34.133v-18.003
				c5.615,0.616,11.307,0.936,17.067,0.936s11.452-0.32,17.067-0.936V392.533z M264.533,358.4c-84.693,0-153.6-76.561-153.6-170.667
				s68.907-170.667,153.6-170.667s153.6,76.561,153.6,170.667S349.226,358.4,264.533,358.4z"/>
			<path d="M273.066,51.2c0-4.71-3.823-8.533-8.533-8.533c-21.854,0-45.867,6.869-64.256,18.364
				c-4.002,2.5-5.214,7.765-2.714,11.759c1.621,2.586,4.403,4.011,7.245,4.011c1.545,0,3.106-0.418,4.514-1.297
				c15.556-9.728,36.71-15.77,55.211-15.77C269.243,59.733,273.066,55.91,273.066,51.2z"/>
			<path d="M187.093,83.456c-3.499-3.166-8.892-2.884-12.049,0.623c-24.457,27.085-38.494,64.87-38.511,103.654
				c0,4.71,3.814,8.533,8.533,8.533c4.71,0,8.533-3.814,8.533-8.533c0.017-34.611,12.45-68.224,34.116-92.228
				C190.873,92.015,190.592,86.613,187.093,83.456z"/>
			<path d="M303.948,307.84c-11.998,4.941-26.718,7.893-39.39,7.893h-0.026c-4.71,0-8.533,3.823-8.533,8.533
				s3.814,8.533,8.533,8.533h0.026c14.78,0,31.932-3.43,45.892-9.173c4.361-1.8,6.434-6.784,4.642-11.145
				C313.292,308.113,308.291,306.039,303.948,307.84z"/>
			<path d="M327.394,292.07c-3.652,2.978-4.181,8.363-1.195,12.006c1.681,2.057,4.13,3.123,6.605,3.123
				c1.903,0,3.814-0.631,5.402-1.937c34.031-27.861,54.332-71.799,54.332-117.53c0-4.71-3.823-8.533-8.533-8.533
				c-4.719,0-8.533,3.823-8.533,8.533C375.471,228.403,357.508,267.409,327.394,292.07z"/>
		</g>
	</g>
</g>
<g>
</g>
<g>
</g>
<g>
</g>
<g>
</g>
<g>
</g>
<g>
</g>
<g>
</g>
<g>
</g>
<g>
</g>
<g>
</g>
<g>
</g>
<g>
</g>
<g>
</g>
<g>
</g>
<g>
</g>
</svg>
