<svg height="512" viewBox="0 0 60 60" width="512" xmlns="http://www.w3.org/2000/svg"><g id="Page-1" fill="none" fill-rule="evenodd"><g id="035---Book-Stack" fill="rgb(0,0,0)" fill-rule="nonzero"><path id="Shape" d="m60 23.5c-.0011488-2.5784515-1.1745561-5.0165189-3.189-6.626 1.4420151-.4021805 2.3648364-1.8082389 2.160087-3.2912205-.2047494-1.4829815-1.474042-2.5863834-2.971087-2.5827795h-.391c-.4703189-.7445713-.6841926-1.62254207-.609-2.5-.0751926-.87745793.1386811-1.75542868.609-2.5h.391c1.6568542 0 3-1.34314575 3-3s-1.3431458-3-3-3h-27.5c-2.4707453.00096842-4.8181396 1.07971804-6.428 2.954-.4504709-.68619952-1.1638005-1.1564472-1.972-1.3l-7.879-1.39c-.7840273-.13829527-1.5908735.04072179-2.24284257.49762529-.65196904.4569035-1.0955884 1.15421962-1.23315743 1.93837471l-6.945 39.389c-.20694359 1.1139443.24667097 2.2473967 1.165 2.911-1.64316975.0191716-2.96511184 1.3567184-2.965 3v9c0 1.6568542 1.34314575 3 3 3h54c1.6568542 0 3-1.3431458 3-3v-9c-.0018551-1.0273655-.5303387-1.9820333-1.4-2.529.2591718-.4471277.3970562-.9541978.4-1.471 0-1.6568542-1.3431458-3-3-3h-.391c-.4703189-.7445713-.6841926-1.6225421-.609-2.5-.0751926-.8774579.1386811-1.7554287.609-2.5h.391c1.497045.0036039 2.7663376-1.099798 2.971087-2.5827795.2047494-1.4829816-.7180719-2.88904-2.160087-3.2912205 2.0144439-1.6094811 3.1878512-4.0475485 3.189-6.626zm-2 0c-.0044079 3.5880235-2.9119765 6.4955921-6.5 6.5h-27.5c-.5522847 0-1-.4477153-1-1s.4477153-1 1-1h27.5c2.4852813-.0000001 4.4999999-2.0147187 4.4999999-4.5s-2.0147186-4.4999999-4.4999999-4.5h-27.5c-.5522847 0-1-.4477153-1-1s.4477153-1 1-1h27.5c3.5880235.0044079 6.4955921 2.9119765 6.5 6.5zm-43.515 15.749-9.847-1.736.694-3.939 9.848 1.736zm-.347 1.97-.521 2.954c-.0959871.5436188-.6143182.9066296-1.158.811l-7.878-1.384c-.26124794-.0458634-.49357264-.1936387-.64585577-.410811-.15228313-.2171722-.21204788-.4859481-.16614423-.747189l.521-2.955zm1.449 3.3 5.593-31.719c.5236327.8903362 1.2039044 1.678679 2.008 2.327-1.4403537.4036547-2.3612805 1.8090281-2.1564139 3.2907789s1.4725695 2.5845246 2.9684139 2.5822211h.391c.4703189.7445713.6841926 1.6225421.609 2.5.0751926.8774579-.1386811 1.7554287-.609 2.5h-.391c-1.497045-.0036039-2.7663376 1.099798-2.971087 2.5827795-.2047494 1.4829816.7180719 2.88904 2.160087 3.2912205-1.9879359 1.5870277-3.1583365 3.9827154-3.1883724 6.5262649-.0300358 2.5435495 1.0834668 4.9662069 3.0333724 6.5997351h-7.577c.0568815-.1556775.1003726-.3159257.13-.479zm11.035-23.519h24.878c1.3807119 0 2.5 1.1192881 2.5 2.5s-1.1192881 2.5-2.5 2.5h-24.878c.5040122-1.6285624.5040122-3.3714376 0-5zm26.756-10h-24.878c-1.3807119 0-2.5-1.11928813-2.5-2.5s1.1192881-2.5 2.5-2.5h24.878c-.2621094.8069975-.3898112 1.65158571-.378 2.5-.0118112.84841429.1158906 1.6930025.378 2.5zm-24.878-9h27.5c.5522847 0 1 .44771525 1 1s-.4477153 1-1 1h-27.5c-2.4852814 0-4.5 2.01471863-4.5 4.5 0 2.4852814 2.0147186 4.5 4.5 4.5h27.5c.5522847 0 1 .4477153 1 1s-.4477153 1-1 1h-27.5c-3.5880235-.0044079-6.4955921-2.9119765-6.5-6.5 0-.166.013-.329.025-.492l.223-1.266c.789581-2.80057611 3.3422514-4.73671862 6.252-4.742zm-17.785 1.045c.0458528-.26145361.1937748-.49394937.4111732-.64625956s.4864336-.21193631.7478268-.16574044l7.878 1.39c.5436188.09598708.9066296.61431821.811 1.158l-.276 1.567c-.1233166.46338309-.206952.93642515-.25 1.414l-4.51 25.578-9.848-1.74zm-8.715 53.955v-9c0-.5522847.44771525-1 1-1h4v11h-4c-.55228475 0-1-.4477153-1-1zm7 1v-11h42v11zm49-1c0 .5522847-.4477153 1-1 1h-4v-11h4c.5522847 0 1 .4477153 1 1zm-4.622-16h-24.878c-1.3807119 0-2.5-1.1192881-2.5-2.5s1.1192881-2.5 2.5-2.5h24.878c-.5040122 1.6285624-.5040122 3.3714376 0 5zm2.622-9c.5522847 0 1 .4477153 1 1s-.4477153 1-1 1h-27.5c-2.4852814 0-4.5 2.0147186-4.5 4.5s2.0147186 4.5 4.5 4.5h27.5c.5522847 0 1 .4477153 1 1s-.4477153 1-1 1h-27.5c-3.5898509 0-6.5-2.9101491-6.5-6.5s2.9101491-6.5 6.5-6.5z"/><path id="Shape" d="m14.771 8.837c.0574769.00986969.115682.01488738.174.015.4848773-.00036157.8996315-.34851903.984-.826l.348-1.97c.0960975-.54400047-.2669995-1.06290243-.811-1.15899998-.5440005-.09609754-1.0629024.26699951-1.159.81099998l-.348 1.97c-.0461959.2613932.0134302.53042839.1657404.7478268.1523102.21739842.384806.36532045.6462596.4111732z"/><path id="Shape" d="m10.95 30.5c.0577137.0107287.1162976.0160849.175.016.485194-.0004473.9000616-.3491216.984-.827l3.126-17.726c.0960975-.5440005-.2669995-1.0629024-.811-1.159-.5440005-.0960975-1.0629024.2669995-1.159.811l-3.126 17.729c-.0944039.5429791.2683038 1.059983.811 1.156z"/><path id="Shape" d="m46 49h-32c-1.1045695 0-2 .8954305-2 2v3c0 1.1045695.8954305 2 2 2h32c1.1045695 0 2-.8954305 2-2v-3c0-1.1045695-.8954305-2-2-2zm-32 5v-3h32v3z"/></g></g></svg>