<svg height="512pt" viewBox="-1 0 512.04428 512" width="512pt" xmlns="http://www.w3.org/2000/svg"><path d="m441.214844 68.289062h2.542968c9.417969-.011718 17.050782-7.648437 17.066407-17.066406v-34.132812c-.015625-9.421875-7.648438-17.0546878-17.066407-17.0664065h-76.800781c-9.421875.0078125-17.058593 7.6445315-17.066406 17.0664065v34.132812c.015625 3.914063 1.390625 7.699219 3.890625 10.710938 11.085938 23.234375 21 47.011718 29.707031 71.238281 12.042969 31.664063 19.46875 64.898437 22.050781 98.675781 2.726563 48.492188-12.140624 89.398438-41.871093 115.183594-30.382813 24.597656-68.46875 37.695312-107.554688 36.992188-39.148437.734374-77.300781-12.367188-107.734375-37-29.726562-25.773438-44.597656-66.675782-41.871094-115.175782 2.582032-33.78125 10.011719-67.015625 22.050782-98.683594 8.707031-24.226562 18.621094-47.996093 29.707031-71.230468 2.496094-3.011719 3.871094-6.796875 3.890625-10.710938v-34.132812c-.011719-9.421875-7.644531-17.058594-17.066406-17.0664065h-76.800782c-9.421874.0078125-17.054687 7.6445315-17.066406 17.0664065v34.132812c.011719 9.421875 7.644532 17.054688 17.066406 17.066406h2.539063c-26.554687 38.46875-76.652344 124-70.273437 213.941407 11.046874 154.625 94.609374 229.792969 255.46875 229.792969 160.859374 0 244.425781-75.167969 255.464843-229.804688 6.375-89.929688-43.71875-175.464844-70.273437-213.929688zm-74.257813-51.199218h76.800781v34.132812h-76.800781zm-298.667969 0h76.800782l.011718 34.132812h-76.8125zm426.183594 263.925781c-6.566406 91.839844-38.417968 213.941406-238.449218 213.941406-200.035157 0-231.882813-122.101562-238.441407-213.933593-6.632812-93.457032 52.1875-182.835938 74.214844-212.734376h44.789063c-9.773438 21.582032-17.621094 40.78125-24.113282 59.183594-12.59375 33.1875-20.339844 68.019532-23.007812 103.417969-3.023438 53.890625 13.925781 99.714844 47.730468 129.023437 33.539063 27.320313 75.664063 41.90625 118.917969 41.175782 43.195313.699218 85.246094-13.882813 118.738281-41.167969 33.8125-29.316406 50.761719-75.148437 47.722657-129.042969-2.65625-35.390625-10.402344-70.214844-22.996094-103.398437-6.492187-18.410157-14.351563-37.609375-24.121094-59.191407h44.800781c22.011719 29.890626 80.832032 119.269532 74.214844 212.726563zm0 0"/><path d="m256.023438 418.15625c-14.140626 0-25.601563 11.460938-25.601563 25.597656 0 14.140625 11.460937 25.601563 25.601563 25.601563 14.136718 0 25.597656-11.460938 25.597656-25.601563-.015625-14.128906-11.464844-25.582031-25.597656-25.597656zm0 34.132812c-4.714844 0-8.535157-3.820312-8.535157-8.535156 0-4.710937 3.820313-8.53125 8.535157-8.53125 4.710937 0 8.53125 3.820313 8.53125 8.53125-.003907 4.710938-3.820313 8.53125-8.53125 8.535156zm0 0"/><path d="m170.6875 401.089844c-14.136719 0-25.597656 11.460937-25.597656 25.597656 0 14.140625 11.460937 25.601562 25.597656 25.601562 14.140625 0 25.601562-11.460937 25.601562-25.601562-.015624-14.128906-11.46875-25.582031-25.601562-25.597656zm0 34.132812c-4.710938 0-8.53125-3.820312-8.53125-8.535156 0-4.710938 3.820312-8.53125 8.53125-8.53125 4.714844 0 8.535156 3.820312 8.535156 8.53125-.003906 4.710938-3.820312 8.53125-8.535156 8.535156zm0 0"/><path d="m102.421875 358.421875c-14.136719 0-25.597656 11.460937-25.597656 25.601563 0 14.136718 11.460937 25.597656 25.597656 25.597656 14.140625 0 25.601563-11.460938 25.601563-25.597656-.015626-14.132813-11.46875-25.585938-25.601563-25.601563zm0 34.132813c-4.710937 0-8.53125-3.820313-8.53125-8.53125 0-4.714844 3.820313-8.535157 8.53125-8.535157 4.714844 0 8.535156 3.820313 8.535156 8.535157-.003906 4.710937-3.824219 8.527343-8.535156 8.53125zm0 0"/><path d="m85.355469 315.753906c0-14.136718-11.460938-25.597656-25.597657-25.597656-14.140624 0-25.601562 11.460938-25.601562 25.597656 0 14.140625 11.460938 25.601563 25.601562 25.601563 14.128907-.015625 25.582032-11.46875 25.597657-25.601563zm-25.597657 8.535156c-4.714843 0-8.535156-3.820312-8.535156-8.535156 0-4.710937 3.820313-8.53125 8.535156-8.53125 4.710938 0 8.53125 3.820313 8.53125 8.53125-.003906 4.710938-3.820312 8.53125-8.53125 8.535156zm0 0"/><path d="m341.355469 401.089844c-14.136719 0-25.597657 11.460937-25.597657 25.597656 0 14.140625 11.460938 25.601562 25.597657 25.601562 14.140625 0 25.601562-11.460937 25.601562-25.601562-.015625-14.128906-11.46875-25.582031-25.601562-25.597656zm0 34.132812c-4.710938 0-8.53125-3.820312-8.53125-8.535156 0-4.710938 3.820312-8.53125 8.53125-8.53125 4.714843 0 8.535156 3.820312 8.535156 8.53125-.003906 4.710938-3.824219 8.53125-8.535156 8.535156zm0 0"/><path d="m409.621094 358.421875c-14.136719 0-25.597656 11.460937-25.597656 25.601563 0 14.136718 11.460937 25.597656 25.597656 25.597656 14.140625 0 25.601562-11.460938 25.601562-25.597656-.015625-14.132813-11.46875-25.585938-25.601562-25.601563zm0 34.132813c-4.710938 0-8.53125-3.820313-8.53125-8.53125 0-4.714844 3.820312-8.535157 8.53125-8.535157 4.714844 0 8.535156 3.820313 8.535156 8.535157-.003906 4.710937-3.820312 8.527343-8.535156 8.53125zm0 0"/><path d="m452.289062 341.355469c14.140626 0 25.601563-11.460938 25.601563-25.601563 0-14.136718-11.460937-25.597656-25.601563-25.597656-14.136718 0-25.601562 11.460938-25.601562 25.597656.015625 14.132813 11.46875 25.585938 25.601562 25.601563zm0-34.132813c4.714844 0 8.535157 3.820313 8.535157 8.53125 0 4.714844-3.820313 8.535156-8.535157 8.535156-4.710937 0-8.53125-3.820312-8.53125-8.535156 0-4.710937 3.820313-8.527344 8.53125-8.53125zm0 0"/><path d="m44.421875 273.089844c.566406 0 1.128906-.058594 1.683594-.171875 4.621093-.925781 7.617187-5.421875 6.691406-10.042969-7.839844-39.222656 16.09375-87.890625 16.332031-88.382812 2.019532-4.199219.292969-9.246094-3.878906-11.328126-4.167969-2.082031-9.238281-.433593-11.386719 3.703126-1.09375 2.199218-26.800781 54.332031-17.800781 99.359374.796875 3.984376 4.296875 6.859376 8.359375 6.863282zm0 0"/><path d="m73.003906 152.722656c2.027344 1.011719 4.371094 1.179688 6.515625.460938 2.148438-.714844 3.925781-2.253906 4.9375-4.277344l8.53125-17.066406c1.363281-2.726563 1.167969-5.976563-.511719-8.519532-1.679687-2.542968-4.589843-4-7.632812-3.816406s-5.757812 1.972656-7.121094 4.703125l-8.53125 17.066407c-1.015625 2.023437-1.179687 4.367187-.464844 6.515624.714844 2.144532 2.253907 3.921876 4.277344 4.933594zm0 0"/></svg>