<svg height="512" viewBox="0 0 60 54" width="512" xmlns="http://www.w3.org/2000/svg"><g id="042---Perpetual-Motion"><path id="Shape" d="m57 43.59v-30.59c0-7.17970175-5.8202983-13-13-13h-28c-7.17970175 0-13 5.82029825-13 13v30.59l-2.12 2.12c-.56276995.5620694-.87929979 1.3246186-.88 2.12v4.17c0 1.1045695.8954305 2 2 2h56c1.1045695 0 2-.8954305 2-2v-4.17c-.0007002-.7953814-.3172301-1.5579306-.88-2.12zm-41-41.59h28c6.0751322 0 11 4.92486775 11 11v30h-2v-30c0-4.97056275-4.0294373-9-9-9h-28c-4.9705627 0-9 4.02943725-9 9v30h-2v-30c0-6.07513225 4.92486775-11 11-11zm9 4v21.1c-1.1987913.2449326-2.2661605.920933-3 1.9-.7286915-.9903045-1.7967177-1.6774014-3-1.93v-21.07zm8 0v21.1c-1.1987913.2449326-2.2661605.920933-3 1.9-.7286915-.9903045-1.7967177-1.6774014-3-1.93v-21.07zm1 23c1.6568542 0 3 1.3431458 3 3s-1.3431458 3-3 3-3-1.3431458-3-3 1.3431458-3 3-3zm-8 0c1.6568542 0 3 1.3431458 3 3s-1.3431458 3-3 3-3-1.3431458-3-3 1.3431458-3 3-3zm-8 0c1.6568542 0 3 1.3431458 3 3s-1.3431458 3-3 3-3-1.3431458-3-3 1.3431458-3 3-3zm-1-1.9c-2.1808941.4455924-3.804592 2.2792416-3.9830087 4.4980294s1.1314187 4.2883277 3.213089 5.0766806c2.0816704.788353 4.4338134.1056472 5.7699197-1.67471.9442719 1.2590292 2.4262135 2 4 2s3.0557281-.7409708 4-2c1.3255809 1.799076 3.6840187 2.5001001 5.7770737 1.7171824 2.0930549-.7829177 3.4124567-2.8596561 3.2319196-5.0870415-.1805371-2.2273853-1.8171723-4.064527-4.0089933-4.5001409v-21.13h5.22l5.29 20.66c-2.3098739 1.1217574-3.3944883 3.810866-2.5092806 6.221315.8852077 2.4104491 3.4524094 3.7584732 5.9392806 3.118685.7667473-.2022296 1.4733996-.5864288 2.06-1.12v8.12h-42v-30c0-3.86599325 3.1340068-7 7-7h1zm34 .31c-.975365-.8631263-2.2490275-1.311599-3.55-1.25l-5.16-20.16h1.71c3.8659932 0 7 3.13400675 7 7zm-4 .84c1.3147681-.3367773 2.691874.2510959 3.3581008 1.4335408s.4556057 2.6648937-.5136039 3.6149815-2.4555605 1.1311311-3.6244969.4414777c-1.0458211-.6170174-1.6165609-1.8036207-1.4457569-3.0058179.1708039-1.2021973 1.0494634-2.182875 2.2257569-2.4841821zm11 23.75h-56v-4.17c0-.55.15-.57 2.41-2.83h51.18c2.25 2.25 2.41 2.28 2.41 2.83z"/><path id="Shape" d="m7 47h-2c-.55228475 0-1 .4477153-1 1s.44771525 1 1 1h2c.55228475 0 1-.4477153 1-1s-.44771525-1-1-1z"/><path id="Shape" d="m23 47h-12c-.5522847 0-1 .4477153-1 1s.4477153 1 1 1h12c.5522847 0 1-.4477153 1-1s-.4477153-1-1-1z"/></g></svg>