<?xml version="1.0" encoding="iso-8859-1"?>
<!-- Generator: Adobe Illustrator 19.0.0, SVG Export Plug-In . SVG Version: 6.00 Build 0)  -->
<svg version="1.1" id="Layer_1" xmlns="http://www.w3.org/2000/svg" xmlns:xlink="http://www.w3.org/1999/xlink" x="0px" y="0px"
	 viewBox="0 0 512 512" style="enable-background:new 0 0 512 512;" xml:space="preserve">
<g>
	<g>
		<path d="M502.394,42.244c-0.982-9.898-5.772-18.814-13.47-25.113c-7.689-6.308-17.415-9.234-27.276-8.235
			c-50.299,5.035-80.239,22.096-114.95,49.863l-8.662,6.962c-23.559,18.86-35.202,24.677-54.135,27.049
			c-23.941,2.999-35.938-0.2-55.689-14.861c-0.845-0.627-3.472-2.663-6.798-5.226c-6.499-5.017-15.588-12.025-19.632-14.97
			c-16.27-11.825-30.93-20.269-47.518-27.376C110.173,11.431,66.127,19.239,30.262,52.332c-6.671,6.153-12.825,13.007-18.278,20.36
			c-2.827,3.799-5.344,7.571-7.09,10.625c-10.18,17.824-3.963,40.61,13.861,50.79c17.806,10.198,40.601,3.99,50.772-13.815
			c0.273-0.464,1.045-1.609,2.236-3.227c2.736-3.672,5.762-7.035,8.989-10.007c14.125-13.025,27.358-15.497,44.182-8.28
			c11.316,4.853,21.514,10.761,33.057,19.151c3.145,2.291,10.898,8.271,17.151,13.098c3.999,3.081,7.389,5.699,8.68,6.653
			c28.512,21.178,53.962,30.557,85.465,30.557c7.553,0,15.47-0.545,23.85-1.591c37.82-4.726,61.315-18.687,91.464-42.828
			l8.616-6.917c29.167-23.341,46.182-30.948,75.839-33.911c9.898-0.991,18.814-5.781,25.113-13.479
			C500.467,61.821,503.385,52.132,502.394,42.244z M479.762,57.731c-3.154,3.845-7.607,6.244-12.561,6.735
			c-37.165,3.717-57.225,15.179-85.592,37.883l-8.671,6.962c-32.057,25.659-52.008,35.102-82.111,38.865
			c-38.465,4.79-64.451-2.081-95.908-25.431c-1.236-0.927-4.535-3.472-8.416-6.462c-6.399-4.935-14.343-11.061-17.569-13.406
			c-12.707-9.244-24.013-15.788-36.665-21.205c-8.553-3.672-16.76-5.508-24.677-5.508c-13.952,0-27.004,5.717-39.447,17.206
			c-4.081,3.754-7.89,7.989-11.316,12.588l-0.018,0.027c-1.963,2.645-3.118,4.481-3.427,5.035
			c-2.472,4.317-6.471,7.417-11.261,8.726c-4.79,1.318-9.807,0.664-14.133-1.8c-8.907-5.09-12.025-16.488-6.944-25.386
			c0.809-1.4,2.645-4.417,5.88-8.771c4.772-6.426,10.143-12.407,15.961-17.778c21.323-19.678,56.652-38.856,104.052-18.569
			c15.26,6.544,28.794,14.352,43.891,25.322c3.963,2.881,12.852,9.743,19.214,14.652c3.463,2.672,6.199,4.79,7.071,5.435
			c23.568,17.505,40.374,21.996,69.095,18.387c24.95-3.127,40.347-12.488,63.46-30.994l8.662-6.953
			c37.756-30.212,64.296-41.783,105.17-45.873c4.908-0.5,9.789,0.954,13.643,4.117c3.845,3.145,6.235,7.599,6.726,12.552
			C484.371,49.033,482.907,53.878,479.762,57.731z"/>
	</g>
</g>
<g>
	<g>
		<path d="M455.295,42.371c-0.464-1.118-1.118-2.145-1.954-2.981c-3.536-3.536-9.771-3.536-13.215,0
			c-0.836,0.836-1.491,1.863-1.954,2.981s-0.745,2.327-0.745,3.536c0,1.3,0.282,2.509,0.745,3.627
			c0.464,1.118,1.118,2.145,1.954,2.981c1.763,1.763,4.09,2.699,6.608,2.699c2.509,0,4.835-0.936,6.608-2.699
			c1.763-1.773,2.7-4.099,2.7-6.608C456.04,44.698,455.758,43.489,455.295,42.371z"/>
	</g>
</g>
<g>
	<g>
		<path d="M502.394,377.304c-0.982-9.898-5.772-18.814-13.47-25.113c-7.689-6.308-17.415-9.253-27.276-8.235
			c-50.299,5.035-80.239,22.096-114.95,49.863l-8.662,6.962c-23.559,18.86-35.202,24.677-54.135,27.049
			c-23.941,3.009-35.938-0.2-55.689-14.861c-0.845-0.627-3.472-2.663-6.798-5.226c-6.499-5.017-15.588-12.025-19.632-14.97
			c-16.27-11.825-30.93-20.269-47.518-27.376c-44.091-18.905-88.137-11.098-124.002,21.996c-6.671,6.153-12.825,13.007-18.278,20.36
			c-2.827,3.799-5.344,7.571-7.09,10.625c-10.18,17.824-3.963,40.61,13.861,50.79c17.806,10.198,40.601,3.99,50.772-13.815
			c0.273-0.464,1.045-1.609,2.236-3.227c2.736-3.672,5.762-7.035,8.989-10.007c14.125-13.034,27.358-15.488,44.182-8.28
			c11.316,4.854,21.514,10.761,33.057,19.151c3.145,2.291,10.898,8.271,17.151,13.098c3.999,3.081,7.389,5.699,8.68,6.653
			c28.512,21.178,53.962,30.557,85.465,30.557c7.553,0,15.47-0.545,23.85-1.591c37.82-4.726,61.315-18.687,91.464-42.828
			l8.616-6.917c29.167-23.341,46.182-30.948,75.839-33.911c9.898-0.991,18.814-5.781,25.113-13.479
			C500.467,396.882,503.385,387.193,502.394,377.304z M479.762,392.791c-3.154,3.845-7.607,6.244-12.561,6.735
			c-37.165,3.717-57.225,15.179-85.592,37.883l-8.671,6.962c-32.057,25.659-52.008,35.102-82.111,38.865
			c-38.465,4.772-64.451-2.09-95.908-25.431c-1.236-0.927-4.535-3.472-8.416-6.462c-6.399-4.935-14.343-11.061-17.569-13.406
			c-12.707-9.244-24.013-15.788-36.665-21.205c-8.553-3.672-16.76-5.508-24.677-5.508c-13.952,0-27.004,5.717-39.447,17.206
			c-4.081,3.754-7.89,7.989-11.316,12.588l-0.018,0.027c-1.963,2.645-3.118,4.481-3.427,5.035
			c-2.472,4.317-6.471,7.417-11.261,8.726c-4.79,1.318-9.807,0.664-14.133-1.8c-8.907-5.09-12.025-16.488-6.944-25.386
			c0.809-1.4,2.645-4.417,5.881-8.771c4.772-6.426,10.143-12.407,15.96-17.778c21.323-19.678,56.652-38.865,104.052-18.569
			c15.26,6.544,28.794,14.352,43.891,25.322c3.963,2.881,12.852,9.743,19.214,14.652c3.463,2.672,6.199,4.79,7.071,5.435
			c23.568,17.505,40.374,21.986,69.095,18.387c24.95-3.127,40.347-12.488,63.46-30.994l8.662-6.953
			c37.756-30.212,64.296-41.783,105.17-45.873c4.908-0.491,9.789,0.964,13.643,4.117c3.845,3.145,6.235,7.599,6.726,12.552
			C484.371,384.093,482.907,388.938,479.762,392.791z"/>
	</g>
</g>
<g>
	<g>
		<path d="M453.34,374.449c-2.236-2.236-5.399-3.254-8.471-2.609c-0.555,0.191-1.118,0.373-1.672,0.564
			c-0.564,0.182-1.118,0.555-1.682,0.836c-0.464,0.373-0.927,0.745-1.391,1.209c-1.682,1.673-2.7,4.099-2.7,6.517
			c0,2.509,0.927,4.835,2.7,6.608c0.927,0.927,1.954,1.582,3.072,2.045c1.118,0.464,2.327,0.654,3.536,0.654
			s2.418-0.191,3.536-0.654c1.118-0.464,2.136-1.118,3.072-2.045c1.763-1.773,2.7-4.099,2.7-6.608
			C456.04,378.549,455.013,376.122,453.34,374.449z"/>
	</g>
</g>
<g>
	<g>
		<path d="M507.068,250.838c-1.736-3.045-4.306-6.817-7.133-10.625c-5.453-7.335-11.648-14.188-18.328-20.36
			c-35.857-33.075-79.902-40.883-123.993-21.986c-16.606,7.108-31.257,15.551-47.527,27.376
			c-4.108,2.99-13.434,10.189-19.951,15.224c-3.181,2.445-5.672,4.372-6.471,4.972c-19.751,14.652-31.703,17.878-55.689,14.861
			c-18.933-2.372-30.576-8.189-54.153-27.067l-8.644-6.953c-34.711-27.758-64.651-44.818-114.959-49.854
			c-9.961-1.009-19.596,1.936-27.276,8.235c-7.698,6.29-12.479,15.206-13.47,25.104c-2.045,20.423,12.907,38.71,33.339,40.755
			c29.657,2.963,46.672,10.571,75.848,33.911l8.644,6.935c30.112,24.122,53.607,38.083,91.436,42.81
			c8.38,1.045,16.297,1.591,23.859,1.591c31.494,0,56.943-9.38,85.456-30.567c1.291-0.954,4.736-3.608,8.78-6.726
			c6.235-4.808,13.925-10.743,17.042-13.016c11.552-8.389,21.741-14.297,33.066-19.151c16.833-7.208,30.453-4.745,44.586,8.28
			c3.254,2.999,4.731,6.371,9.384,10.007v0.009c0,1.618,1.559,2.754,1.813,3.181c10.189,17.842,32.791,24.05,50.597,13.852
			C511.149,291.448,517.266,268.662,507.068,250.838z M492.615,274.215c-1.309,4.79-4.408,8.789-8.726,11.262
			c-8.944,5.099-20.314,1.972-25.395-6.908c-0.318-0.573-1.472-2.418-3.445-5.063c-3.39-4.572-7.189-8.807-11.307-12.606
			c-19.542-18.005-40.519-21.841-64.133-11.698c-12.652,5.417-23.959,11.952-36.683,21.205c-3.199,2.336-11.08,8.407-17.451,13.325
			c-3.936,3.026-7.28,5.608-8.525,6.535c-31.439,23.35-57.407,30.221-95.899,25.44c-30.112-3.763-50.072-13.206-82.111-38.865
			l-8.644-6.953c-28.403-22.714-48.463-34.175-85.628-37.892c-10.216-1.018-17.696-10.162-16.669-20.378
			c0.963-9.589,9.071-16.76,18.505-16.76c0.618,0,1.236,0.027,1.863,0.091c40.883,4.09,67.423,15.661,105.161,45.845l8.68,6.98
			c23.113,18.515,38.51,27.867,63.46,30.994c28.712,3.599,45.509-0.882,69.104-18.396c0.845-0.627,3.436-2.627,6.735-5.172
			c6.381-4.926,15.515-11.979,19.533-14.906c15.097-10.971,28.631-18.778,43.9-25.322c47.345-20.278,82.72-1.118,104.043,18.56
			c5.826,5.381,11.198,11.371,15.961,17.778c3.236,4.363,5.072,7.38,5.872,8.771C493.278,264.399,493.923,269.416,492.615,274.215z"
			/>
	</g>
</g>
<g>
	<g>
		<path d="M73.698,209.901c-0.464-1.118-1.118-2.145-1.954-2.981c-0.463-0.464-0.936-0.836-1.491-1.209
			c-0.464-0.282-1.027-0.654-1.582-0.836c-0.564-0.191-1.118-0.373-1.772-0.564c-2.972-0.554-6.235,0.373-8.371,2.609
			c-0.836,0.836-1.491,1.863-1.954,2.981c-0.564,1.118-0.745,2.327-0.745,3.536c0,2.509,0.927,4.835,2.7,6.608
			c0.927,0.836,1.954,1.582,3.072,2.045c1.118,0.464,2.327,0.654,3.536,0.654c1.209,0,2.418-0.191,3.536-0.654
			c1.118-0.464,2.136-1.209,3.072-2.045c1.763-1.773,2.7-4.099,2.7-6.608C74.444,212.228,74.162,211.019,73.698,209.901z"/>
	</g>
</g>
<g>
</g>
<g>
</g>
<g>
</g>
<g>
</g>
<g>
</g>
<g>
</g>
<g>
</g>
<g>
</g>
<g>
</g>
<g>
</g>
<g>
</g>
<g>
</g>
<g>
</g>
<g>
</g>
<g>
</g>
</svg>
