<svg xmlns="http://www.w3.org/2000/svg" viewBox="0 0 1280 600"><defs><style>.a{fill:#c4c4c4;}.b{fill:#b3b3b3;}.c{fill:#a3a3a3;}.d{fill:#b8b8b8;}.e,.f{fill:none;stroke-miterlimit:10;stroke-width:4px;}.e{stroke:#c9c9c9;}.f{stroke:#999;}</style></defs><title>bg1</title><rect class="a" width="1280" height="600"/><polygon class="b" points="196 514 337.33 514 368 264.67 166.33 264.67 196 514"/><circle class="b" cx="267.54" cy="190.33" r="40.66"/><path class="b" d="M336.74,257.67H199.59c5.08-11.91,22.26-21.58,44.8-25.63a44.39,44.39,0,0,0,47.54,0C314.48,236.09,331.66,245.76,336.74,257.67Z" transform="translate(-1)"/><rect class="c" x="549" y="101.33" width="553.33" height="298" rx="12" ry="12"/><rect class="d" x="541.33" y="91.33" width="553.33" height="298" rx="12" ry="12"/><polyline class="e" points="613.33 198 684 278 802.67 278 825.33 300 918.67 188.67 973.33 188.67 1037.33 237.19"/><polyline class="f" points="613.33 322 704 152.67 818 240.33 854.67 186 952 300 978.67 264.67 1037.33 322"/></svg>