<?xml version="1.0" encoding="utf-8"?>
<!-- Generator: Adobe Illustrator 24.1.2, SVG Export Plug-In . SVG Version: 6.00 Build 0)  -->
<svg version="1.1" id="Layer_1" xmlns="http://www.w3.org/2000/svg" xmlns:xlink="http://www.w3.org/1999/xlink" x="0px" y="0px"
	 viewBox="0 0 1280 600" style="enable-background:new 0 0 1280 600;" xml:space="preserve">
<style type="text/css">
	.st0{fill:#FDC391;}
	.st1{display:none;}
	.st2{display:inline;fill:#E09350;}
	.st3{display:inline;fill:#FDA65B;}
	.st4{display:inline;fill:none;stroke:#FBD6B5;stroke-width:2;stroke-miterlimit:10;}
	.st5{display:inline;fill:#FBD6B5;stroke:#FBD6B5;stroke-width:2;stroke-miterlimit:10;}
	.st6{display:inline;fill:#FBD6B5;}
	.st7{display:inline;fill:#FDC391;}
	.st8{display:inline;fill:#C78A50;}
	.st9{font-family:'OCRAExtended';}
	.st10{font-size:11.61px;}
	.st11{display:inline;fill:#F2BB8B;}
	.st12{fill:#DF934F;enable-background:new    ;}
	.st13{fill:#FDA65B;}
	.st14{fill:none;stroke:#FBD6B5;stroke-width:4;stroke-linecap:round;stroke-miterlimit:10;}
	.st15{fill:none;stroke:#FBD6B5;stroke-width:4;stroke-linecap:round;stroke-miterlimit:10;stroke-dasharray:11.7433,11.7433;}
	.st16{fill:none;stroke:#FBD6B5;stroke-width:4;stroke-linecap:round;stroke-miterlimit:10;stroke-dasharray:12;}
	.st17{fill:#FBD6B5;}
</style>
<rect y="0" class="st0" width="1280" height="600"/>
<g class="st1">
	
		<image style="display:inline;overflow:visible;enable-background:new    ;" width="184" height="212" xlink:href="B69D9F66.png"  transform="matrix(1 0 0 1 552 80)">
	</image>
	<polygon class="st2" points="456.9,237.8 456.9,132 365.3,79.1 273.7,132 273.7,237.8 365.3,290.7 	"/>
	<polygon class="st2" points="593.1,482.6 593.1,376.8 501.5,324 409.9,376.8 409.9,482.6 501.5,535.5 	"/>
	<polygon class="st2" points="881.2,482.6 881.2,376.8 789.5,324 698,376.8 698,482.6 789.5,535.5 	"/>
	<polygon class="st2" points="1012.8,237.8 1012.8,132 921.2,79.1 829.6,132 829.6,237.8 921.2,290.7 	"/>
	
		<image style="display:inline;overflow:visible;enable-background:new    ;" width="184" height="213" xlink:href="B69D9F61.png"  transform="matrix(1 0 0 1 546 65)">
	</image>
	<polygon class="st3" points="450.4,223.2 450.4,117.4 358.8,64.5 267.2,117.4 267.2,223.2 358.8,276 	"/>
	<polygon class="st3" points="586.7,468 586.7,362.2 495.1,309.3 403.5,362.2 403.5,468 495.1,520.9 	"/>
	<polygon class="st3" points="874.7,468 874.7,362.2 783.1,309.3 691.5,362.2 691.5,468 783.1,520.9 	"/>
	<polygon class="st3" points="1006.3,223.2 1006.3,117.4 914.7,64.5 823.1,117.4 823.1,223.2 914.7,276 	"/>
	<polygon class="st4" points="386,147.2 350.8,147.2 333.1,177.7 350.8,208.3 386,208.3 403.7,177.7 	"/>
	<line class="st4" x1="350.8" y1="147.2" x2="332.1" y2="128.5"/>
	<line class="st4" x1="400.9" y1="177.7" x2="427.2" y2="177.7"/>
	<line class="st4" x1="332.1" y1="128.5" x2="313.2" y2="147.3"/>
	<line class="st4" x1="313.2" y1="147.3" x2="292.7" y2="129.1"/>
	<line class="st4" x1="341.4" y1="175.7" x2="353.6" y2="154.5"/>
	<line class="st4" x1="395" y1="177.7" x2="382.8" y2="156.6"/>
	<line class="st4" x1="356.3" y1="202.1" x2="380.7" y2="202.1"/>
	<circle class="st5" cx="638.3" cy="170" r="13.1"/>
	
		<image style="display:inline;overflow:visible;enable-background:new    ;" width="81" height="138" xlink:href="B69D9F60.png"  transform="matrix(1 0 0 1 598 102)">
	</image>
	<circle class="st6" cx="882.2" cy="169.7" r="5.8"/>
	<circle class="st6" cx="927.9" cy="214.1" r="5.8"/>
	<circle class="st6" cx="954.2" cy="114.6" r="5.8"/>
	<circle class="st6" cx="893.8" cy="126.2" r="5.8"/>
	<circle class="st7" cx="968.7" cy="179.7" r="8.7"/>
	<circle class="st7" cx="864.2" cy="217" r="8.7"/>
	<polygon class="st7" points="444.6,434 548.2,434 553.1,457.2 438.4,457.2 	"/>
	<rect x="445.1" y="426.4" class="st7" width="102.6" height="4.5"/>
	
		<image style="display:inline;overflow:visible;enable-background:new    ;" width="36" height="52" xlink:href="B69D9F6F.png"  transform="matrix(1 0 0 1 475 373)">
	</image>
	<polyline class="st7" points="480.6,373 471.1,373 475.6,378 	"/>
	<polygon class="st7" points="510.9,378 510.9,373 505.9,373 505.9,379.6 	"/>
	<text transform="matrix(1 0 0 1 468.7 448.46)" class="st8 st9 st10">0.00004</text>
	<path class="st11" d="M839.3,438.6h-72c0-11.5,16.1-20.8,36-20.8S839.3,427.2,839.3,438.6z"/>
	<path class="st7" d="M798.2,443.9h-72c0-11.5,16.1-20.8,36-20.8S798.2,432.5,798.2,443.9z"/>
	<circle class="st11" cx="803.3" cy="397.6" r="17.5"/>
	<circle class="st7" cx="762.2" cy="398.9" r="18.8"/>
</g>
<path class="st12" d="M490.4,327H373.8c-9.5,0-17.3-7.7-17.3-17.3V141.2c0-9.5,7.7-17.3,17.3-17.3h116.6c9.5,0,17.3,7.7,17.3,17.3
	v168.5C507.7,319.2,499.9,327,490.4,327z"/>
<path class="st13" d="M484.4,320H367.8c-9.5,0-17.3-7.7-17.3-17.3V134.2c0-9.5,7.7-17.3,17.3-17.3h116.6c9.5,0,17.3,7.7,17.3,17.3
	v168.5C501.7,312.2,493.9,320,484.4,320z"/>
<path class="st12" d="M874.9,518.5H758.2c-9.5,0-17.3-7.7-17.3-17.3V332.7c0-9.5,7.7-17.3,17.3-17.3h116.6c9.5,0,17.3,7.7,17.3,17.3
	v168.5C892.2,510.8,884.4,518.5,874.9,518.5z"/>
<path class="st13" d="M865.9,509.5H749.2c-9.5,0-17.3-7.7-17.3-17.3V323.7c0-9.5,7.7-17.3,17.3-17.3h116.6c9.5,0,17.3,7.7,17.3,17.3
	v168.5C883.2,501.8,875.4,509.5,865.9,509.5z"/>
<path class="st12" d="M799.3,244.9H682.6c-9.5,0-17.3-7.7-17.3-17.3V59.1c0-9.5,7.7-17.3,17.3-17.3h116.6c9.5,0,17.3,7.7,17.3,17.3
	v168.5C816.6,237.2,808.8,244.9,799.3,244.9z"/>
<path class="st13" d="M794.3,238.9H677.6c-9.5,0-17.3-7.7-17.3-17.3V53.1c0-9.5,7.7-17.3,17.3-17.3h116.6c9.5,0,17.3,7.7,17.3,17.3
	v168.5C811.6,231.2,803.8,238.9,794.3,238.9z"/>
<g>
	<g>
		<path class="st14" d="M436.6,360c0.6,1.2,1.5,3,2.8,5.3"/>
		<path class="st15" d="M445.5,375.3c14.8,22.8,47.5,62.5,104.9,79.7c62.4,18.7,115.1-0.8,137.8-11.7"/>
		<path class="st14" d="M693.4,440.6c2.3-1.2,4.1-2.2,5.3-2.9"/>
	</g>
</g>
<path class="st16" d="M923.8,410.5c89.4-17.6,146-99.5,135.4-174.2c-12.1-85.3-110.5-152.6-211.7-122.4"/>
<path class="st16" d="M631.2,194.5c-3.8,14.3-14.1,44.4-41.8,70.6c-17.4,16.5-35.3,25.4-47.5,30.2"/>
<g>
	<path class="st17" d="M401.8,238.9v-10.4h34.6v10.4H401.8z M412.5,232.8v-32.9h6l-16,9.2v-11.3l15.4-8.8h7.7v43.8H412.5z"/>
	<path class="st17" d="M440.4,225.9h13.2v13h-13.2V225.9z"/>
</g>
<g>
	<path class="st17" d="M711.8,159.7V150l16.2-16.9c1.5-1.6,2.6-3.1,3.4-4.6c0.8-1.5,1.2-2.9,1.2-4.3c0-1.6-0.5-2.8-1.5-3.6
		c-1-0.8-2.4-1.2-4.3-1.2c-2,0-4,0.4-6.2,1.2c-2.2,0.8-4.4,1.9-6.5,3.3l-4.1-9.3c2-1.6,4.6-2.9,7.8-3.9c3.2-1,6.5-1.4,9.8-1.4
		c3.6,0,6.7,0.6,9.4,1.7c2.7,1.1,4.8,2.8,6.2,4.9c1.5,2.1,2.2,4.6,2.2,7.5c0,2.9-0.6,5.6-1.7,7.9c-1.1,2.4-3.1,5-5.8,7.9l-13.2,13.5
		l-1.8-3.4H747v10.4H711.8z"/>
	<path class="st17" d="M752.9,146.7h13.2v13h-13.2V146.7z"/>
</g>
<g>
	<path class="st17" d="M799.7,429.1c-3.5,0-6.9-0.5-10.1-1.4c-3.3-1-5.9-2.3-7.9-3.9l4.1-9.3c2.1,1.5,4.3,2.6,6.6,3.4
		c2.2,0.7,4.5,1.1,6.7,1.1c2.8,0,4.8-0.4,6-1.2c1.2-0.8,1.8-2.2,1.8-4.2c0-1.9-0.6-3.2-1.7-4c-1.1-0.8-3-1.2-5.7-1.2h-7.8v-10.1h6.4
		c2.6,0,4.5-0.3,5.6-1s1.7-1.9,1.7-3.6c0-1.8-0.5-3.1-1.6-4.1c-1.1-0.9-2.6-1.4-4.6-1.4c-2,0-4.1,0.4-6.3,1.2
		c-2.2,0.8-4.3,1.9-6.3,3.3l-4.1-9.3c2-1.6,4.6-2.9,7.9-3.9c3.2-1,6.5-1.4,9.8-1.4c3.6,0,6.7,0.6,9.3,1.7c2.6,1.1,4.7,2.7,6.2,4.8
		s2.2,4.5,2.2,7.3s-0.7,5.2-2.2,7.2c-1.5,2-3.6,3.4-6.4,4.2l0.1-0.6c3.1,0.7,5.6,2.2,7.3,4.3c1.7,2.1,2.6,4.8,2.6,8
		c0,4.4-1.8,7.8-5.3,10.4C810.3,427.8,805.6,429.1,799.7,429.1z"/>
	<path class="st17" d="M825.2,415.5h13.2v13h-13.2V415.5z"/>
</g>
</svg>
