<svg xmlns="http://www.w3.org/2000/svg" viewBox="0 0 1280 600"><defs><style>.a{fill:#fad2cf;}.b{fill:#a68c89;}.c{fill:#d1b0ad;}.d{fill:#e6bebc;}.e{fill:#b39695;}.f{fill:#e6c1bf;}.g{fill:#dbb9b6;}.h{fill:#ccaba8;}.i{fill:#99807f;}.j{fill:#b09491;}</style></defs><title>bg4</title><rect class="a" width="1280" height="600"/><circle class="b" cx="466.46" cy="300.5" r="140.79"/><circle class="c" cx="461.46" cy="295.5" r="140.79"/><circle class="d" cx="461.46" cy="295.5" r="113.76"/><path class="e" d="M808.61,300.07C809,308,809,317,807.5,325.26q-.42,3.14-1,6.3c-.36,2.12-.75,4.25-1.19,6.42-.58,3.15-1.23,6.3-1.93,9.45s-1.47,6.3-2.27,9.45q-1,3.31-2.1,6.63c-.89,2.56-1.77,5.13-2.66,7.69s-1.82,5.13-2.76,7.67a39.21,39.21,0,0,0-4.16,7.53c-.75,2.43-1.68,5.18-2.79,8C781,407,770,429,753,422c-9-4-5-18-7.8-27.31-.32-3.22-.46-6.54-.47-9.9-.05-10.06,1.17-20.64,1.74-29.23.48-2.67,1-5.34,1.45-8,1-5.34,1.83-10.68,2.41-16.06.6-3.55,1.19-7,1.68-10.26,4-34.24-3-69.24-10.47-102.08-.75-3.18-1.53-6.36-2.32-9.54s-1.6-6.36-2.42-9.55c-.69-3.34-1.3-6.7-1.8-10.07,0-4,1-9,4.38-12.63a14.25,14.25,0,0,1,5.73-5.45A9.48,9.48,0,0,1,753,172a53.56,53.56,0,0,1,8.12,4.2c18.27,12.08,27.44,32,33.58,52,.87,2.86,1.69,5.73,2.44,8.57C804,255,805,275,807.74,293.82,808.17,296.37,808.47,298.49,808.61,300.07Z" transform="translate(0 0)"/><path class="f" d="M805.61,298.07C806,306,806,315,804.5,323.26q-.42,3.14-1,6.3c-.36,2.12-.75,4.25-1.19,6.42-.58,3.15-1.23,6.3-1.93,9.45s-1.47,6.3-2.27,9.45q-1,3.31-2.1,6.63c-.89,2.56-1.77,5.13-2.66,7.69s-1.82,5.13-2.76,7.67a39.21,39.21,0,0,0-4.16,7.53c-.75,2.43-1.68,5.18-2.79,8C778,405,767,427,750,420c-9-4-5-18-7.8-27.31-.32-3.22-.46-6.54-.47-9.9-.05-10.06,1.17-20.64,1.74-29.23.48-2.67,1-5.34,1.45-8,1-5.34,1.83-10.68,2.41-16.06.6-3.55,1.19-7,1.68-10.26,4-34.24-3-69.24-10.47-102.08-.75-3.18-1.53-6.36-2.32-9.54s-1.6-6.36-2.42-9.55c-.69-3.34-1.3-6.7-1.8-10.07,0-4,1-9,4.38-12.63a14.25,14.25,0,0,1,5.73-5.45A9.48,9.48,0,0,1,750,170a53.56,53.56,0,0,1,8.12,4.2c18.27,12.08,27.44,32,33.58,52,.87,2.86,1.69,5.73,2.44,8.57C801,253,802,273,804.74,291.82,805.17,294.37,805.47,296.49,805.61,298.07Z" transform="translate(0 0)"/><rect class="f" x="733" y="157.74" width="10.68" height="21.97" transform="translate(-9.69 287.32) rotate(-21.88)"/><path class="g" d="M762.42,350.89c6.58,0,13.16-10.52,14.47,0s-6.57,18.43-7.23,19.74-.66,20.55-7.24,16.2-13.16-4.36-9.21-13.57S762.42,350.89,762.42,350.89Z" transform="translate(0 0)"/><path class="g" d="M758.62,283.41c0,2.06-4.63,9.78,0,8.75s6.67-3.09,5.91-5.66-7-7.21-3.9-8.24S758.62,281.35,758.62,283.41Z" transform="translate(0 0)"/><path class="g" d="M793.62,300.5a85.4,85.4,0,0,1,0,9.67s-4.63,2.06-6.17,0,0,2.05,0-4.38-.86-9.84-.69-13.54-.82-5.24,3.53-4.21,3.79,6.46,3.56,9.46S793.42,297.56,793.62,300.5Z" transform="translate(0 0)"/><path class="g" d="M768.91,222.67c5.15,1.55,4.12,1,5.15,5.67s4.42,8.75,3,11.32-5,6.69-8.13,5.66-6.4-4.12-4.22-7.72-.12-5.66,0-7.21-1-6.69-.7-7.72S768.91,222.67,768.91,222.67Z" transform="translate(0 0)"/><path class="g" d="M760.63,313.26c-1,6.18-4.58,6.18-4.07,9.78s-1.13,8.75,2,6.69,5.53-2.06,5.37-5.15,1.19-3.6,0-6.69A11,11,0,0,0,760.63,313.26Z" transform="translate(0 0)"/><path class="g" d="M742.67,186.65c-2.06,3.08-3.09,0,0,6.69s-2.06,5.66,0,9.26-4.67,8,1,7.87,7.91,1.3,8.34-2,.09-1.75,0-6.38-.6-6.18-2.66-7.72S742.67,186.65,742.67,186.65Z" transform="translate(0 0)"/><path class="g" d="M777,193.39c.09.12-9.78,3-6.38,7.15s4.73,4.53,6.38,7.93,6.29,6.48,6.29,6.48l3.41-2.89-3.52-7.89-2.92-5.52Z" transform="translate(0 0)"/><path class="h" d="M645.76,249h-.1l-2-38.56-2,38.56h-3l-1.94-37.72-2,37.72h-3l-2-38.56-2,38.56h-2.12l-2-38.56-2,38.56c0,9.29,2.22,17.45,5.56,22.1v107.4a6,6,0,0,0,6,6h.9a6,6,0,0,0,6-6V271.13C643.55,266.47,645.76,258.32,645.76,249Z" transform="translate(0 0)"/><path class="h" d="M643.76,247h-.1l-2-38.56-2,38.56h-3l-1.94-37.72-2,37.72h-3l-2-38.56-2,38.56h-2.12l-2-38.56-2,38.56c0,9.29,2.22,17.45,5.56,22.1v107.4a6,6,0,0,0,6,6h.9a6,6,0,0,0,6-6V269.13C641.55,264.47,643.76,256.32,643.76,247Z" transform="translate(0 0)"/><path class="i" d="M645.76,249h-.1l-2-38.56-2,38.56h-3l-1.94-37.72-2,37.72h-3l-2-38.56-2,38.56h-2.12l-2-38.56-2,38.56c0,9.29,2.22,17.45,5.56,22.1v107.4a6,6,0,0,0,6,6h.9a6,6,0,0,0,6-6V271.13C643.55,266.47,645.76,258.32,645.76,249Z" transform="translate(0 0)"/><path class="h" d="M643.76,247h-.1l-2-38.56-2,38.56h-3l-1.94-37.72-2,37.72h-3l-2-38.56-2,38.56h-2.12l-2-38.56-2,38.56c0,9.29,2.22,17.45,5.56,22.1v107.4a6,6,0,0,0,6,6h.9a6,6,0,0,0,6-6V269.13C641.55,264.47,643.76,256.32,643.76,247Z" transform="translate(0 0)"/><path class="j" d="M307.25,288.11V211.47c-8.64,0-15.64,22.47-15.64,50.21A141.24,141.24,0,0,0,294,288.51v95.36a6,6,0,0,0,6,6h1.31a6,6,0,0,0,5.95-6V288.11Z" transform="translate(0 0)"/><path class="h" d="M304.25,285.11V208.47c-8.64,0-15.64,22.47-15.64,50.21A141.24,141.24,0,0,0,291,285.51v95.36a6,6,0,0,0,6,6h1.31a6,6,0,0,0,5.95-6V285.11Z" transform="translate(0 0)"/></svg>