<?xml version="1.0" encoding="utf-8"?>
<!-- Generator: Adobe Illustrator 24.1.2, SVG Export Plug-In . SVG Version: 6.00 Build 0)  -->
<svg version="1.1" id="Layer_1" xmlns="http://www.w3.org/2000/svg" xmlns:xlink="http://www.w3.org/1999/xlink" x="0px" y="0px"
	 viewBox="0 0 1280 600" style="enable-background:new 0 0 1280 600;" xml:space="preserve">
<style type="text/css">
	.st0{fill:#C5D8F7;}
	.st1{fill:none;stroke:#436AA8;stroke-width:2;stroke-miterlimit:10;}
	.st2{fill:#2F3E9C;}
	.st3{fill:#5073DB;}
	.st4{fill:#3B57B8;}
	.st5{fill:#435EBA;}
	.st6{fill:#6784E6;}
	.st7{opacity:0.8;fill:#3750A3;enable-background:new    ;}
	.st8{fill:#5C79DB;}
	.st9{opacity:0.4;fill:none;stroke:#254678;stroke-miterlimit:10;enable-background:new    ;}
</style>
<rect y="0" class="st0" width="1280" height="600"/>
<path class="st1" d="M587.9,323.3c-9.5-48-58.9-98.7-137.5-96"/>
<path class="st1" d="M750.6,323.3c-5.6-50.7,30.4-84.2,89.1-96.1"/>
<path class="st1" d="M654.3,306c0,0,15.2-67.4-14.3-129.3"/>
<rect x="562" y="348.6" class="st2" width="254" height="172.4"/>
<polygon class="st3" points="475.1,460.5 491.9,395.9 559.7,352.6 542.9,417.2 "/>
<polygon class="st2" points="497.6,565.7 563,521 563,348.6 497.6,393.4 "/>
<polygon class="st4" points="750.6,565.7 816,521 816,348.6 750.6,393.4 "/>
<rect x="497.6" y="393.4" class="st4" width="253.9" height="172.4"/>
<rect x="764" y="365.1" transform="matrix(0.8249 -0.5653 0.5653 0.8249 -83.2082 523.1666)" class="st3" width="77.9" height="61.7"/>
<polygon class="st3" points="743.7,457.2 489.7,457.2 497.6,393.4 751.5,393.4 "/>
<path class="st5" d="M428,264H277.2c0-28,33.8-50.7,75.4-50.7S428,236,428,264z"/>
<circle class="st5" cx="352.6" cy="168.3" r="39.1"/>
<path class="st6" d="M425,261.1H274.2c0-28,33.8-50.7,75.4-50.7S425,233.1,425,261.1z"/>
<circle class="st6" cx="349.6" cy="165.4" r="39.1"/>
<path class="st7" d="M942.3,194.9c0-12.7-9.1-31.9-29.8-31.9c-21.5,0-30.9,19.3-30.9,31.9c0,7.6,6.8,21.3,12.2,31.1
	c0.3,0.7,0.7,1.4,1.2,2.1c0.5,1.6,1.1,3.2,1.7,4.9s1.2,3.2,1.9,4.8V253c0,6.6,5.4,12,12,12h4.7c6.6,0,12-5.4,12-12v-15.2
	c0.3-1.3,0.6-2.6,0.9-3.8s0.7-2.5,1.1-3.7c2.1-3.7,3.8-7.7,5.1-11.7C938.5,210,942.3,200.7,942.3,194.9z"/>
<path class="st8" d="M938.1,193.3c0-12.7-9.1-31.9-29.8-31.9c-21.5,0-30.9,19.3-30.9,31.9c0,7.6,6.8,21.3,12.2,31.1
	c0.3,0.7,0.7,1.4,1.2,2.1c0.5,1.6,1.1,3.2,1.7,4.9s1.2,3.2,1.9,4.8v15.1c0,6.6,5.4,12,12,12l0,0h4.7c6.6,0,12-5.4,12-12v-15.1
	c0.3-1.3,0.6-2.6,0.9-3.8s0.7-2.5,1.1-3.7c2.1-3.7,3.8-7.7,5.1-11.7C934.3,208.4,938.1,199.1,938.1,193.3z"/>
<path class="st9" d="M916.8,171.6c12.3,3.1,19.8,15.6,16.7,27.9c0,0,0,0.1,0,0.1"/>
<circle class="st5" cx="612.3" cy="150.7" r="14.3"/>
<path class="st5" d="M592.9,48.9h34.6c4.1,0,7.1,4.1,5.8,8l-15.8,48c-1.8,5.4-9.4,5.6-11.5,0.3l-18.9-48
	C585.7,53.2,588.6,48.9,592.9,48.9z"/>
<circle class="st6" cx="610.3" cy="148.7" r="14.3"/>
<path class="st6" d="M590.9,46.9h34.6c4.1,0,7.1,4.1,5.8,8l-15.8,48c-1.8,5.4-9.4,5.6-11.5,0.3l-18.9-48
	C583.7,51.2,586.6,46.9,590.9,46.9z"/>
</svg>
