<svg xmlns="http://www.w3.org/2000/svg" viewBox="0 0 1280 600"><defs><style>.a{fill:#c5d8f7;}.b,.j,.k{fill:none;stroke-miterlimit:10;}.b{stroke:#436aa8;stroke-width:2px;}.c{fill:#2f3e9c;}.d{fill:#5073db;}.e{fill:#3b57b8;}.f{fill:#435eba;}.g{fill:#6784e6;}.h{fill:#3750a3;}.h,.k{opacity:0.8;}.i{fill:#5c79db;}.j{stroke:#254678;opacity:0.4;}.k{stroke:#33c;stroke-width:3px;}</style></defs><title>bg5</title><rect class="a" width="1280" height="600"/><path class="b" d="M587.87,323.33c-9.54-48-58.87-98.66-137.54-96" transform="translate(0 0)"/><path class="b" d="M750.59,323.33c-5.59-50.66,30.41-84.2,89.08-96.1" transform="translate(0 0)"/><path class="b" d="M654.33,306S669.54,238.62,640,176.67" transform="translate(0 0)"/><rect class="c" x="562.04" y="348.61" width="253.95" height="172.37"/><polygon class="d" points="475.12 460.45 491.94 395.87 559.7 352.58 542.88 417.16 475.12 460.45"/><polygon class="c" points="497.65 565.72 563.04 520.98 563.04 348.61 497.65 393.35 497.65 565.72"/><polygon class="e" points="750.59 565.72 815.99 520.98 815.99 348.61 750.59 393.35 750.59 565.72"/><rect class="e" x="497.65" y="393.35" width="253.95" height="172.37"/><rect class="d" x="772.06" y="356.96" width="61.66" height="77.88" transform="translate(675.66 -490.2) rotate(55.58)"/><polygon class="d" points="743.65 457.16 489.7 457.16 497.59 393.35 751.54 393.35 743.65 457.16"/><path class="f" d="M428,264H277.21c0-28,33.76-50.66,75.4-50.66S428,236,428,264Z" transform="translate(0 0)"/><circle class="f" cx="352.61" cy="168.27" r="39.14"/><path class="g" d="M425,261.1H274.21c0-28,33.76-50.66,75.4-50.66S425,233.12,425,261.1Z" transform="translate(0 0)"/><circle class="g" cx="349.61" cy="165.37" r="39.14"/><path class="h" d="M942.32,194.92c0-12.67-9.08-31.92-29.81-31.92-21.48,0-30.89,19.25-30.89,31.92,0,7.57,6.76,21.3,12.21,31.14a18,18,0,0,0,1.16,2.11c.53,1.6,1.08,3.24,1.66,4.87s1.21,3.23,1.86,4.77V253a12,12,0,0,0,12,12h4.74a12,12,0,0,0,12-12V237.81c.26-1.29.58-2.56.92-3.82s.73-2.49,1.1-3.72a63.75,63.75,0,0,0,5.12-11.74C938.52,210.05,942.32,200.69,942.32,194.92Z" transform="translate(0 0)"/><path class="i" d="M938.13,193.28c0-12.66-9.08-31.92-29.81-31.92-21.48,0-30.89,19.26-30.89,31.92,0,7.57,6.76,21.31,12.21,31.14a17.19,17.19,0,0,0,1.16,2.11c.53,1.6,1.08,3.24,1.66,4.87s1.21,3.23,1.86,4.78v15.14a12,12,0,0,0,12,12h4.74a12,12,0,0,0,12-12V236.18c.26-1.3.58-2.57.92-3.83s.73-2.49,1.1-3.72a63.16,63.16,0,0,0,5.12-11.74C934.33,208.42,938.13,199.06,938.13,193.28Z" transform="translate(0 0)"/><path class="j" d="M916.76,171.59a23,23,0,0,1,16.69,28" transform="translate(0 0)"/><circle class="h" cx="602.2" cy="103" r="14.33"/><ellipse class="k" cx="602.2" cy="103" rx="60" ry="20.83" transform="translate(29.18 314.9) rotate(-30)"/><ellipse class="k" cx="602.2" cy="103" rx="20.83" ry="60" transform="translate(211.9 573.02) rotate(-60)"/><ellipse class="k" cx="602.2" cy="103" rx="20.83" ry="60"/></svg>